<?xml version="1.0" encoding="UTF-8" standalone="no"?>
<!-- Created with Inkscape (http://www.inkscape.org/) -->

<svg
   width="700"
   height="400"
   viewBox="0 0 700 400"
   version="1.1"
   id="SVGRoot"
   sodipodi:docname="landing-page.svg"
   inkscape:version="1.1.1 (3bf5ae0d25, 2021-09-20)"
   xmlns:inkscape="http://www.inkscape.org/namespaces/inkscape"
   xmlns:sodipodi="http://sodipodi.sourceforge.net/DTD/sodipodi-0.dtd"
   xmlns="http://www.w3.org/2000/svg"
   xmlns:svg="http://www.w3.org/2000/svg">
  <sodipodi:namedview
     id="namedview4998"
     pagecolor="#505050"
     bordercolor="#eeeeee"
     borderopacity="1"
     inkscape:pageshadow="0"
     inkscape:pageopacity="0"
     inkscape:pagecheckerboard="0"
     inkscape:document-units="px"
     showgrid="false"
     inkscape:zoom="0.72337263"
     inkscape:cx="407.12074"
     inkscape:cy="396.06143"
     inkscape:window-width="1920"
     inkscape:window-height="1001"
     inkscape:window-x="-9"
     inkscape:window-y="-9"
     inkscape:window-maximized="1"
     inkscape:current-layer="g373"
     height="400px" />
  <defs
     id="defs4993" />
  <g
     inkscape:label="Capa 1"
     inkscape:groupmode="layer"
     id="layer1">
    <g
       id="g4770"
       transform="matrix(0.19787461,0,0,0.19787461,171.7808,180.66382)">
      <g
         id="g373"
         transform="matrix(0.61196556,0,0,0.61196556,350.2613,36.156358)">
        <g
           id="g362"
           transform="translate(0,-330.32616)">
          <path
             d="m 2271.8042,636.30877 c 0,0 27.6533,-10.02667 45.5333,17.98666 17.8667,28.02667 8.2,25.36 16.8934,39.37334 8.7066,14.01333 12.88,53.82666 15.88,75.34666 30.6533,219.54666 -335.9867,237.33337 -192.8133,-42.49333 13.4266,-26.25333 24.7866,-42.02667 36.8666,-70.04 12.08,-28.01333 63.1467,-26.93333 77.64,-20.17333"
             style="fill:#b75742;fill-opacity:1;fill-rule:nonzero;stroke:none;stroke-width:0.133333"
             id="path16" />
          <path
             d="m 2193.3642,841.4021 -36.9733,-12.92 c 0,0 -14.68,18.76 -19.08,65.67999 -4.4,46.92 0,74.50667 0,74.50667 h 41.8267 l 14.2266,-127.26666"
             style="fill:#355389;fill-opacity:1;fill-rule:nonzero;stroke:none;stroke-width:0.133333"
             id="path18" />
          <path
             d="m 2267.4442,816.21543 c -12.5333,1.29333 -105.8533,-7.57333 -111.0533,12.26667 -27.9467,106.66666 10.4933,253.92 20.3067,263.7467 9.8266,9.8266 170.1866,-22.1734 170.1866,-22.1734 0,0 25.16,-264.62664 -79.44,-253.83997"
             style="fill:#466eb6;fill-opacity:1;fill-rule:nonzero;stroke:none;stroke-width:0.133333"
             id="path20" />
          <path
             d="m 2394.8042,706.86877 c 0,0 -10.3067,-4.90667 -19.6667,-22.26667 -6.0133,-11.13333 -23.88,-25.4 -16.4533,-27.70667 7.44,-2.30666 18.84,16.52 20.9733,11.12 2.1334,-5.38666 -19.1466,-46.14666 -12.4,-48.24 6.7334,-2.09333 24.3867,37.56 26.2934,32.73334 1.9066,-4.82667 -18.0134,-39.46667 -8.4934,-42.42667 9.5334,-2.94667 19.8267,42.64 24.9334,41.05333 5.12,-1.58666 -2.3334,-36.37333 5.3333,-38.74666 7.6667,-2.38667 6.5867,43.01333 9.3467,41.70666 1.4933,-0.70666 8.2933,-22.69333 12.4666,-21.04 4.7067,1.85334 -8.0133,47 -2.36,56.94667 5.64,9.94667 50.8267,133.62666 35.3734,149.08 -16.8267,16.82666 -123.9467,55.43999 -146.36,48.79999 -22.4134,-6.64 -35.2534,-28.79999 -29.8667,-42.41333 5.3867,-13.62666 111.2933,-44.22666 112.9733,-48.49333 1.6934,-4.28 -12.0933,-90.10666 -12.0933,-90.10666"
             style="fill:#f7a491;fill-opacity:1;fill-rule:nonzero;stroke:none;stroke-width:0.133333"
             id="path22" />
          <path
             d="m 2403.3909,667.8021 c 3.24,-0.13333 6.4266,0.58667 9.4933,1.72 0.4533,0.32 10.6,3.28 14.9733,14.50667 -4.8266,-5.74667 -10.1866,-12.09334 -24.4666,-16.22667"
             style="fill:#f48c7f;fill-opacity:1;fill-rule:nonzero;stroke:none;stroke-width:0.133333"
             id="path24" />
          <path
             d="m 947.08425,1490.1621 c -1.77333,-12.7334 2.21333,-34.6267 12.18667,-68.8934 -19.74667,0.04 -36.33334,-8.6933 -56.50667,-8.3866 -5.52,32.2133 -14.05333,85.12 -14.05333,85.12 l -0.90667,41.8266 140.46665,1.0534 c 0,0 -1.1733,0.6 -42.58665,-25.56 -3.05334,-1.9334 -36.88,-12.8534 -38.6,-25.16"
             style="fill:#f7a491;fill-opacity:1;fill-rule:nonzero;stroke:none;stroke-width:0.133333"
             id="path26" />
          <path
             d="m 887.12425,1550.5754 h 145.01335 c 5.36,-0.48 6.6666,-4.8533 4.8,-7.5467 -3.8267,-5.56 -32.1067,-18.8933 -51.12002,-27.7333 -33.34666,3.5067 -91.97333,-10.2267 -97.22666,-17.9467 -9.14667,25.5867 -4.44,52.5734 -1.46667,53.2267"
             style="fill:#3c8f7c;fill-opacity:1;fill-rule:nonzero;stroke:none;stroke-width:0.133333"
             id="path28" />
          <path
             d="m 772.11092,1490.1621 c -1.78667,-12.7334 -4.8,-28.68 -0.37333,-71.1334 -19.74667,0.053 -38.52,-3.6533 -58.69334,-3.3466 0,33.1466 0.69334,82.32 0.69334,82.32 l -0.92,41.8266 140.46666,1.0534 c 0,0 -1.16,0.6 -42.57333,-25.56 -3.06667,-1.9334 -36.89333,-12.8534 -38.6,-25.16"
             style="fill:#f7a491;fill-opacity:1;fill-rule:nonzero;stroke:none;stroke-width:0.133333"
             id="path30" />
          <path
             d="m 712.15092,1550.5754 h 145 c 5.36,-0.48 6.66666,-4.8533 4.81333,-7.5467 -3.82667,-5.56 -32.10666,-18.8933 -51.12,-27.7333 -33.36,3.5067 -91.97333,-10.2267 -97.24,-17.9467 -9.14666,25.5867 -4.44,52.5734 -1.45333,53.2267"
             style="fill:#3c8f7c;fill-opacity:1;fill-rule:nonzero;stroke:none;stroke-width:0.133333"
             id="path32" />
          <path
             d="m 874.19092,277.18878 52.82666,-55.74667 c 0,0 56.56,31.10667 122.49332,60.82667 18.12,-31.54667 47.6933,-135.32 49.2933,-140.26667 1.5867,-4.96 -34.6533,-67.293329 -26.5466,-68.866662 8.1066,-1.56 18.64,33.293332 27.2,29.760002 8.5733,-3.533336 30.6133,-84.386667 35.7733,-79.973334 9.64,8.253333 -11.6,50.293332 -6.5067,53.346665 5.08,3.066667 17.9867,-46.586665 27.8134,-44.466665 9.8133,2.12 -16.5867,45.199999 -13.6934,49.346665 2.8934,4.133333 30.5067,-36.279999 36.2,-26.919999 3.1067,5.08 -25.4533,35.199999 -19.5866,38.559999 5.88,3.373333 31.6133,-15.586666 34.6933,-9.453333 3.0667,6.146666 -24.0267,12.546666 -31.5467,28.106662 -7.52,15.54667 -21.2,21.6 -25.7333,51 -4.52,29.36 -16.9467,186.52 -48.9733,199.13333 -27.9734,11.01333 -213.70668,-84.38666 -213.70668,-84.38666"
             style="fill:#f7a491;fill-opacity:1;fill-rule:nonzero;stroke:none;stroke-width:0.133333"
             id="path34" />
          <path
             d="m 908.32425,577.8421 -42.85333,23.90667 -87.09333,133.15999 155.75999,366.61334 c 0,0 -17.54666,55.1333 -23.25333,82.68 -5.98667,28.8133 -20.65333,276.1733 -20.65333,276.1733 l 66.45333,1.1067 c 0,0 63.11995,-263.32 73.79995,-348.7867 12.9867,-103.7866 -66.05328,-350.9733 -66.05328,-350.9733 -14.73334,-50.42667 -46.50667,-154.17333 -46.50667,-154.17333 0,0 -7.77333,-25.28 -9.6,-29.70667"
             style="fill:#355389;fill-opacity:1;fill-rule:nonzero;stroke:none;stroke-width:0.133333"
             id="path36" />
          <path
             d="m 759.19092,527.82877 c 0,0 4.42667,31.33333 -13.29333,67.05333 -10.8,21.78667 -29.46667,38.86667 -42.82667,65.54667 -25.28,50.50666 -39.01333,122.22666 -29.53333,168.33333 0,0 52.28,199.64 50.21333,272.6 -0.77333,26.9067 -10,75.3867 -15.90667,108.16 -5.22666,28.9733 -3.38666,243.8933 -3.38666,243.8933 l 70.6,1.3733 56.82666,-352.5199 24.02667,-313.36004 52.4,-211.05332 -149.12,-50.02667"
             style="fill:#466eb6;fill-opacity:1;fill-rule:nonzero;stroke:none;stroke-width:0.133333"
             id="path38" />
          <path
             d="m 924.15092,62.108782 c -6.85334,-32.36 -13.92,-64.8399988 -46.08,-88.146665 -26.02667,-18.853333 -53.98667,-24.253333 -83.62667,-13.493333 -84,30.4666661 -38.82666,97.119998 -143.05333,168.159996 -32.38666,22.08 -44.68,29.77333 -67.92,59.18667 -32.53333,41.18666 -50.31999,96.42666 -33.97333,141.91999 33.82667,94.06667 138.62667,121.24 193.44,101.29333 102.03999,-37.12 187.05333,-166.53333 192.70666,-201.83999 6.04,-37.8 -7.08,-146.239999 -11.49333,-167.079998"
             style="fill:#13375b;fill-opacity:1;fill-rule:nonzero;stroke:none;stroke-width:0.133333"
             id="path40" />
          <path
             d="m 931.93758,312.20211 c 23.64,10.93333 66.46667,27.34666 66.46667,27.34666 l 24.35995,-77.05333 c -137.70662,-78.33333 -126.90662,-65.69333 -230.25328,-64.16 -82.57333,1.17334 -117.17333,-14.58666 -188.28,177.34667 0,0 54.13334,24.32 73.50667,32.13333 8.33333,-23.73333 23.4,-71.05333 32.18666,-44.08 13.26667,40.76 22.98667,81.90667 29.50667,124.26666 4.13333,25.10667 13.14667,57.25334 8.4,82.82667 0,0 56.24,11.58667 99.18666,13.46667 0.12,0 0.25334,0.0133 0.37334,0 20.74666,-0.53334 42.01333,-2.36 60.93333,-6.44 0,0 8.41333,-178.05333 12.92,-185.49333 4.98667,-8.22667 26.02667,-34.8 8.12,-74.56 -3.16,-7.02667 -2.30667,-7.85333 2.57333,-5.6"
             style="fill:#50bfa5;fill-opacity:1;fill-rule:nonzero;stroke:none;stroke-width:0.133333"
             id="path42" />
          <path
             d="m 805.44425,119.08211 c 0,0 -6.57333,53.09334 -10.45333,71.53334 -4.05333,19.29333 -10.16,80.03999 29.84,89.90666 40,9.85333 27.64,-66.10667 28.30666,-85.72 0.65334,-19.61333 12,-88 12,-88 l -59.69333,12.28"
             style="fill:#f7a491;fill-opacity:1;fill-rule:nonzero;stroke:none;stroke-width:0.133333"
             id="path44" />
          <path
             d="m 803.27092,136.02878 c 0.41333,0.24 0.78667,0.50667 1.2,0.73333 22.10667,12.68 41.34666,10.68 55.8,0.81334 2.57333,-16.97334 4.86666,-30.77334 4.86666,-30.77334 l -59.69333,12.28 c 0,0 -0.88,7.06667 -2.17333,16.94667"
             style="fill:#f47458;fill-opacity:1;fill-rule:nonzero;stroke:none;stroke-width:0.133333"
             id="path46" />
          <path
             d="m 817.47092,-19.197883 c 0,0 -23.44,6.586666 -36.96,29.866666 -13.50667,23.266666 -20.25333,90.119997 29.50667,118.653327 49.74666,28.52 85.06666,-17.18666 83.55999,-59.933329 -1.50666,-42.759998 -13.42666,-99.319997 -76.10666,-88.586664"
             style="fill:#f7a491;fill-opacity:1;fill-rule:nonzero;stroke:none;stroke-width:0.133333"
             id="path48" />
          <path
             d="m 904.56425,51.042115 c 0.56,11.106667 -4.2,20.373333 -10.61333,20.706666 -6.42667,0.32 -12.06667,-8.426666 -12.62667,-19.533332 -0.54667,-11.12 4.2,-20.386667 10.62667,-20.72 6.41333,-0.32 12.06666,8.426667 12.61333,19.546666"
             style="fill:#f7a491;fill-opacity:1;fill-rule:nonzero;stroke:none;stroke-width:0.133333"
             id="path50" />
          <path
             d="m 824.51092,-20.957883 c 0,0 -26.81333,69.919998 -53.06667,77.373331 -26.25333,7.453334 -24.14666,41.839999 -24.14666,41.839999 0,0 -3.36,-79.493331 20.61333,-98.98666381 23.97333,-19.49333319 56.6,-20.22666619 56.6,-20.22666619"
             style="fill:#13375b;fill-opacity:1;fill-rule:nonzero;stroke:none;stroke-width:0.133333"
             id="path52" />
          <path
             d="m 782.69759,70.095448 c 4.05333,10.92 1.4,22.026666 -5.92,24.786666 -7.32,2.76 -16.54667,-3.866666 -20.6,-14.799999 -4.04,-10.92 -1.38667,-22.026667 5.93333,-24.786667 7.32,-2.759999 16.54667,3.866667 20.58667,14.8"
             style="fill:#f7a491;fill-opacity:1;fill-rule:nonzero;stroke:none;stroke-width:0.133333"
             id="path54" />
          <path
             d="m 828.56425,621.25543 c 0.97334,0.13334 5.36,-0.44 8.94667,-0.34666 4.96,0.08 9.29333,0.84 9.29333,0.84 0,0 1.96,-1.68 5.68,-3.41334 1.54667,-0.70666 4.06667,-0.97333 5.8,-1.77333 1.77333,-0.84 3.28,-2.34667 4.96,-3.09333 4.38667,-1.90667 8.41333,-2.36 9.74667,-0.0533 1.10666,1.90667 -23.30667,16.84 -23.30667,16.84 -22.58666,0.13334 -46.24,11.65334 -98.6,-22.50666 C 721.17759,594.6821 575.96426,522.9621 573.04426,507.3221 c -1.64,-8.77333 20.64,-76.67999 38.85333,-128.23999 14.04,6.28 43.89333,19.57333 60.6,26.57333 -15.33333,32.46667 -33.4,75.53333 -31.50667,80.8 0.49334,1.37333 2.30667,3.85333 100.48,68.13333 2.48,1.6 5,3.28 7.57333,4.96 6.90667,4.52 14.30667,9.34667 22.14667,14.44 l 28,-2.92 c 0,0 44.34666,3.05333 45.66666,8.10667 0.57334,2.30666 -3.09333,3.45333 -7.61333,4.12 h -0.13333 c -0.66667,0.0933 -1.33334,0.17333 -2,0.26666 -0.04,0 -0.08,0 -0.08,0 -4.88,0.57334 -10.01333,0.66667 -11.25333,1.10667 -1.42667,0.48 -4.25334,1.6 -6.69334,3.28 27.64,11.29333 25.52,7.26666 34.69333,6.69333 2.29334,-0.18667 4.73334,0.48 6.90667,0.30667 3.72,-0.30667 6.69333,-2.53333 9.56,-2.70667 4.21333,-0.21333 7.62667,1.73333 8.38667,2.53333 0.97333,0.97334 -0.85334,2.38667 -4.38667,3.98667 -21.36,9.25333 -39.04,5.70667 -44.70666,7.08 -3.81334,0.93333 3.14666,2.34667 13.99999,1.2 2.70667,-0.26667 6.25334,0.70667 9.84,-0.13333 2.38667,-0.53334 4.56,-2.08 6.90667,-2.66667 2.17333,-0.52 4.38667,-0.48 6.2,-0.84 2.4,-0.44 5.72,-2.25333 7.62667,-2.48 7.08,-0.78667 10.53333,0.45333 11.33333,1.10667 1.64,1.46666 -30.56,13.82666 -30.56,13.82666 0,0 -22.2,3.18667 -27.16,3.18667 0,0 -2.97333,1.33333 2.84,2.21333"
             style="fill:#f7a491;fill-opacity:1;fill-rule:nonzero;stroke:none;stroke-width:0.133333"
             id="path56" />
          <path
             d="M 2625.6042,1550.5754 H -826.79037 c -5.42,0 -9.81334,4.2533 -9.81334,9.48 v 0 c 0,5.24 4.39334,9.48 9.81334,9.48 H 2625.6042 c 5.4133,0 9.8133,-4.24 9.8133,-9.48 v 0 c 0,-5.2267 -4.4,-9.48 -9.8133,-9.48"
             style="fill:#184655;fill-opacity:1;fill-rule:nonzero;stroke:none;stroke-width:0.133333"
             id="path58" />
          <path
             d="m -636.11304,849.41543 c 0,0 -14.84534,183.11997 -14.84534,199.02667 0,15.9067 63.188,20.4 63.188,20.4 l 19.31867,-187.90667 -67.66133,-31.52"
             style="fill:#466eb6;fill-opacity:1;fill-rule:nonzero;stroke:none;stroke-width:0.133333"
             id="path60" />
          <path
             d="m -541.86771,804.8421 c 0,0 -40.99734,-21.96 -74.796,-1.84 -33.79733,20.12 -43.00133,138.30666 -43.00133,138.30666 l 108.26799,12.97333 9.52934,-149.43999"
             style="fill:#86b1f2;fill-opacity:1;fill-rule:nonzero;stroke:none;stroke-width:0.133333"
             id="path62" />
          <path
             d="m -291.50905,1407.6821 c 0,0 -20.71734,84.4933 -36.15867,97.76 -15.44133,13.2666 -65.79466,38.64 -52.61866,41.3733 13.17599,2.72 110.68666,4.9867 108.01333,-11.2667 -2.67334,-16.2666 -5.47867,-26.64 -5.47867,-26.64 l 25.79333,-60.3466 -39.55066,-40.88"
             style="fill:#f47458;fill-opacity:1;fill-rule:nonzero;stroke:none;stroke-width:0.133333"
             id="path64" />
          <path
             d="m -386.84238,1550.2687 c 23.78133,2.3734 93.21733,4.8667 113.44933,2.28 0,0 3.79333,-0.7466 1.12,-17 -0.65334,-3.9866 -1.31467,-7.6 -1.94134,-10.8133 -18.348,4.8267 -58.308,-5.44 -74.13866,-7.5467 -17.196,8.24 -36.57867,20.5334 -42.83067,21.56 -9.056,1.4934 -9.048,10.1867 4.34134,11.52"
             style="fill:#13375b;fill-opacity:1;fill-rule:nonzero;stroke:none;stroke-width:0.133333"
             id="path66" />
          <path
             d="m -64.123726,1478.5087 c 0,0 2.174667,21.3734 2.174667,30.8 0,9.4134 -8.774667,35.9867 -4.709334,40.0534 4.064,4.0666 120.210664,3.56 120.210664,-0.2667 0,-3.8267 -20.525333,-15.4133 -48.4186653,-23.3867 -27.8946657,-7.9733 -37.3773327,-38.8666 -30.1319997,-56.6133 l -39.125332,9.4133"
             style="fill:#f47458;fill-opacity:1;fill-rule:nonzero;stroke:none;stroke-width:0.133333"
             id="path68" />
          <path
             d="m 55.424271,1549.3621 c 0,-3.5734 -19.046666,-14.5067 -43.713332,-22.0534 -26.286666,8.88 -62.790665,1.56 -76.475998,-1.0533 -4.189333,10.9467 -5.526667,21.3333 -3.372,23.48 4.065333,4.0667 123.56133,3.4533 123.56133,-0.3733"
             style="fill:#13375b;fill-opacity:1;fill-rule:nonzero;stroke:none;stroke-width:0.133333"
             id="path70" />
          <path
             d="m -190.19039,1121.3221 -20.83067,18.48 c 0,0 -23.44933,63.4933 -24.81466,67.68 -1.89867,5.8267 -77.85867,250.6 -77.85867,250.6 l 52.91867,19.0533 c 0,0 52.47066,-102.2267 61.16533,-137.7333 8.69467,-35.4933 95.63867,-184.0267 95.63867,-184.0267 l -86.21867,-34.0533"
             style="fill:#86b1f2;fill-opacity:1;fill-rule:nonzero;stroke:none;stroke-width:0.133333"
             id="path72" />
          <path
             d="m -98.177058,1159.0021 25.359999,324.4266 h 58.686665 c 0,0 21.0106663,-242.7999 13.76533316,-328.0533 l -97.81199716,3.6267"
             style="fill:#86b1f2;fill-opacity:1;fill-rule:nonzero;stroke:none;stroke-width:0.133333"
             id="path74" />
          <path
             d="m -412.62105,932.94876 c 0,0 17.83333,87.18664 33.48667,102.84004 8.90933,8.9066 33.19066,44.96 51.87199,44.96 14.868,0 23.72267,1.0933 26.22,1.0933 5.796,0 -0.72533,35.4933 -6.15866,40.9333 0,0 -1.812,5.4267 -12.68,5.4267 -10.868,0 -68.468,-39.48 -85.856,-56.8667 -17.38933,-17.3866 -49.632,-112.30664 -49.632,-112.30664 l 42.748,-26.08"
             style="fill:#f7a491;fill-opacity:1;fill-rule:nonzero;stroke:none;stroke-width:0.133333"
             id="path76" />
          <path
             d="m -126.43306,823.54876 c 0,0 -22.46,26.08 -52.16533,70.28 -29.70667,44.18667 -105.62533,166.89334 -113.75066,175.01334 -1.96667,1.9733 -8.12534,5.9333 -8.12534,5.9333 0,0 -10.66,-2.2933 -16.396,-0.1866 -5.60533,2.0666 -13.15466,12.92 -10.49733,15.5866 2.656,2.6534 12.904,-6.2266 16.03467,-6.1333 3.13333,0.1067 3.40666,0.093 3.40666,1.7867 0,1.68 -12.68,8.6933 -16.30266,9.6533 -3.62134,0.9733 -13.16934,15.64 -11.35067,20.5333 1.81867,4.88 1.69067,6.52 6.28,6.52 4.588,0 5.31333,3.6267 9.176,3.6267 3.86533,0 4.832,-4.84 9.17867,-2.9067 4.348,1.9334 5.55466,1.4534 19.07866,-6.76 13.52534,-8.2133 38.76267,-38.76 51.44134,-51.44 12.67866,-12.68 128.48399,-138.86664 128.48399,-138.86664 l -14.492,-102.64"
             style="fill:#f47458;fill-opacity:1;fill-rule:nonzero;stroke:none;stroke-width:0.133333"
             id="path78" />
          <path
             d="m -77.285059,629.25543 c 0,0 -27.653331,-10.02666 -45.525331,17.98667 -17.87067,28.01333 -8.21067,25.36 -16.90533,39.36 -8.69467,14.01333 -31.396,11.12 -31.396,32.85333 0,21.73333 10.144,25.12 10.144,25.12 0,0 -9.17734,16.90667 0.96533,34.29333 10.14267,17.38667 35.43733,32.36 56.60133,29.94667 0,0 31.790668,17.42667 63.669333,9.2 31.881333,-8.24 20.770667,-8.24 33.8119996,-8.24 13.0426664,0 48.3013324,-17.86667 42.5053324,-43.94667 0,0 21.486666,-25.53333 0.638667,-46.37333 C 16.377605,698.6021 12.434939,677.42877 0.36027248,649.41543 -11.715727,621.4021 -62.793059,622.4821 -77.285059,629.25543"
             style="fill:#184655;fill-opacity:1;fill-rule:nonzero;stroke:none;stroke-width:0.133333"
             id="path80" />
          <path
             d="m -470.58238,813.66876 c 4.10533,1.42667 20.89733,13.38667 30.67733,32.22667 9.78133,18.82666 35.616,97.56 35.616,97.56 l -42.51867,15.57333 -23.77466,-145.36"
             style="fill:#50bfa5;fill-opacity:1;fill-rule:nonzero;stroke:none;stroke-width:0.133333"
             id="path82" />
          <path
             d="m -684.55971,1462.8154 c 0,0 -7.004,24.88 -12.55867,30.44 -5.55466,5.5467 -23.96933,27.1067 -19.44133,37.7867 4.528,10.6933 116.74,26 120.996,21.7333 4.256,-4.2533 -19.38134,-22.28 -32.784,-33.32 -13.404,-11.0533 -23.004,-24.64 -17.38933,-41.12 5.61466,-16.48 5.61466,-14.8533 5.61466,-16.48 0,-1.64 -44.43733,0.96 -44.43733,0.96"
             style="fill:#f7a491;fill-opacity:1;fill-rule:nonzero;stroke:none;stroke-width:0.133333"
             id="path84" />
          <path
             d="m -595.56371,1552.7754 c 5.07866,-3.8 -10.68667,-20.8267 -33.53467,-33.9467 -9.564,-0.013 -22.31866,-0.6666 -33.12133,-3.36 -16.91333,-4.2266 -29.88,-18.88 -33.72667,-23.64 -0.34933,0.4934 -27.55066,26.6934 -22.24266,39.2134 4.52666,10.6933 112.48266,29.3466 122.62533,21.7333"
             style="fill:#355389;fill-opacity:1;fill-rule:nonzero;stroke:none;stroke-width:0.133333"
             id="path86" />
          <path
             d="m -498.37438,1474.8954 c 0,0 2.072,25.5467 -2.136,32.1867 -4.20933,6.6266 -18.936,32.9066 -10.728,41.12 7.4,7.4 110.18933,2.64 113.41466,-2.44 3.22534,-5.08 -14.36533,-20.2534 -29.856,-28.1067 -15.492,-7.8667 -27.82533,-19.0267 -25.94,-36.3467 1.884,-17.3066 2.23867,-15.72 1.884,-17.3066 -0.356,-1.5867 -46.63866,10.8933 -46.63866,10.8933"
             style="fill:#f7a491;fill-opacity:1;fill-rule:nonzero;stroke:none;stroke-width:0.133333"
             id="path88" />
          <path
             d="m -385.05705,1549.8554 c 5.36,-3.4 -18.332,-24.8267 -43.49067,-32.6533 -9.33733,2.0666 -21.92533,4.2266 -33.05866,3.9466 -17.428,-0.44 -33.27734,-11.9066 -38.06934,-15.7066 -0.23466,0.5466 -23.64933,34.4666 -13.15466,43.12 8.19467,6.76 119.63066,6.4666 127.77333,1.2933"
             style="fill:#355389;fill-opacity:1;fill-rule:nonzero;stroke:none;stroke-width:0.133333"
             id="path90" />
          <path
             d="m -490.87038,1113.1088 -66.36533,192.2933 -76.124,178.0266 -63.75867,-16.0266 c 0,0 23.01067,-123.4 44.62534,-162.16 16.356,-29.3333 27.77599,-197.6533 27.77599,-197.6533 l 133.84667,5.52"
             style="fill:#f47458;fill-opacity:1;fill-rule:nonzero;stroke:none;stroke-width:0.133333"
             id="path92" />
          <path
             d="m -522.73838,1145.4688 22.99333,337.9599 h 54.34 c 0,0 23.73333,-354.0799 15.03867,-387.7599 -8.69334,-33.6934 -99.22267,-26.08 -99.22267,-26.08 l 6.85067,75.88"
             style="fill:#b75742;fill-opacity:1;fill-rule:nonzero;stroke:none;stroke-width:0.133333"
             id="path94" />
          <path
             d="m -470.58238,813.66876 c 0,0 -70.03067,-20.98666 -80.81467,-19.62666 -11.80533,1.48 -40.496,16.68 -40.496,16.68 0,0 1.76267,121.58666 -3.308,155.95999 -5.072,34.37331 -40.57466,144.49331 -40.57466,144.49331 0,0 49.99333,28.9867 134.03866,19.5734 84.04533,-9.4267 78.24933,-29.7067 78.24933,-29.7067 0,0 -7.97066,-121.72001 -15.94133,-175.34667 -7.96933,-53.61334 -31.15333,-112.02667 -31.15333,-112.02667"
             style="fill:#96d9c9;fill-opacity:1;fill-rule:nonzero;stroke:none;stroke-width:0.133333"
             id="path96" />
          <path
             d="m 4.706939,832.2421 c 0,0 -37.313332,-9.78667 -79.701331,-12.14667 -21.945333,-1.21333 -51.438668,3.45333 -51.438668,3.45333 0,0 -26.80666,60.13333 -34.77733,109.4 -7.968,49.26667 -51.44133,207.21334 -51.44133,207.21334 0,0 88.392,68.1067 217.358659,23.1867 V 832.2421"
             style="fill:#f7a491;fill-opacity:1;fill-rule:nonzero;stroke:none;stroke-width:0.133333"
             id="path98" />
          <path
             d="m -95.761058,778.37543 c 0,0 1.16,38.48 -2.452,42.08 -3.612002,3.61333 -8.657332,9.61333 -3.344002,18.78667 5.313335,9.17333 28.377334,3.32 39.125334,-1.93334 10.314666,-5.04 16.972,-14.42666 16.972,-14.42666 l -5.38,-60.92 -44.921332,16.41333"
             style="fill:#f47458;fill-opacity:1;fill-rule:nonzero;stroke:none;stroke-width:0.133333"
             id="path100" />
          <path
             d="m -80.425059,794.3221 c 7.406667,-2.6 20.349333,-7.6 30.338666,-23.82667 l -0.753333,-8.53333 -44.921332,16.41333 c 0,0 0.282666,9.38667 0.134666,19.32 6.293333,-0.25333 11.668,-2.13333 15.201333,-3.37333"
             style="fill:#b75742;fill-opacity:1;fill-rule:nonzero;stroke:none;stroke-width:0.133333"
             id="path102" />
          <path
             d="m -702.50771,643.10877 c 0,0 -3.692,17.10666 14.152,23.12 17.844,6.01333 28.91867,-56.76 39.06933,-69.17334 10.152,-12.39999 40.91733,-15.78666 56.91467,8.98667 8.79466,13.61333 11.54533,19.54667 12.23866,22.12 0.56934,2.10667 -0.24133,1.97333 -0.24133,1.97333 l -4.824,9.02667 c 0,0 -15.48,-9.4 -21.32533,7.76 -5.84534,17.16 11.38266,45.24 -3.384,68.54667 -14.768,23.30666 -41.83867,6.82666 -41.83867,6.82666 -22.45866,15.09333 -48.3,-7.94666 -56.60533,-29.74666 -8.30667,-21.81334 5.844,-49.44 5.844,-49.44"
             style="fill:#f7cc7f;fill-opacity:1;fill-rule:nonzero;stroke:none;stroke-width:0.133333"
             id="path104" />
          <path
             d="m -526.39171,730.0021 -2.43734,25.24 -22.568,38.8 c 0,0 44.496,53.86666 58.23467,41 3.068,-2.88 10.812,-59.89334 10.812,-59.89334 l -44.04133,-45.14666"
             style="fill:#f7a491;fill-opacity:1;fill-rule:nonzero;stroke:none;stroke-width:0.133333"
             id="path106" />
          <path
             d="m -528.82905,755.2421 -4.71733,8.61333 c 13.876,12.45333 31.67067,23.65333 48.49333,30.09333 1.57067,-10.45333 2.70267,-18.8 2.70267,-18.8 l -44.04133,-45.14666 -2.43734,25.24"
             style="fill:#f48c7f;fill-opacity:1;fill-rule:nonzero;stroke:none;stroke-width:0.133333"
             id="path108" />
          <path
             d="m -480.56905,647.13543 c 0,0 11.764,10.66667 16.08667,16.69334 25.72666,35.85333 4.888,106.53333 -8.54267,112.41333 -20.33733,8.90666 -46.80533,-3.06667 -76.63466,-23.29334 -29.828,-20.22666 -39.25467,-52.98666 -11.94267,-81.47999 27.31067,-28.48 81.03333,-24.33334 81.03333,-24.33334"
             style="fill:#f7a491;fill-opacity:1;fill-rule:nonzero;stroke:none;stroke-width:0.133333"
             id="path110" />
          <path
             d="m -579.54105,640.81543 8.128,-7.77333 c 31.86134,0 57.26534,-19.21333 93.02667,0.10667 23.60266,12.74666 13.904,30.68 13.904,30.68 -87.40133,0 -55.872,68.87999 -66.58267,96.29333 -10.708,27.41333 -77.54,-31.86667 -48.476,-119.30667"
             style="fill:#f7cc7f;fill-opacity:1;fill-rule:nonzero;stroke:none;stroke-width:0.133333"
             id="path112" />
          <path
             d="m -518.40105,718.38877 c 0,0 -1.23466,-22.6 -15.096,-18.12 -13.864,4.48 -3.06133,38.54666 8.44667,37.34666 11.50667,-1.2 6.64933,-19.22666 6.64933,-19.22666"
             style="fill:#f7a491;fill-opacity:1;fill-rule:nonzero;stroke:none;stroke-width:0.133333"
             id="path114" />
          <path
             d="m -42.927726,718.45543 c 0,0 1.093333,-22.61333 14.981333,-18.22666 13.891999,4.4 3.303999,38.53333 -8.210667,37.39999 -11.514666,-1.12 -6.770666,-19.17333 -6.770666,-19.17333"
             style="fill:#f47458;fill-opacity:1;fill-rule:nonzero;stroke:none;stroke-width:0.133333"
             id="path116" />
          <path
             d="m -581.82771,623.78877 c 0,0 13.16666,8.16 18.476,7.48 5.30933,-0.68 -8.128,16.53333 -15.252,18.32 -7.124,1.78666 -4.61467,-5.06667 -6.12,-7.41334 -1.50534,-2.36 -7.048,-0.52 -8.328,-2.26666 -2.91467,-3.94667 5.00266,-15.37334 11.224,-16.12"
             style="fill:#50bfa5;fill-opacity:1;fill-rule:nonzero;stroke:none;stroke-width:0.133333"
             id="path118" />
          <path
             d="m -336.22905,1121.3221 c 0,0 12.18266,-18.84 16.16666,-19.7467 3.98534,-0.9066 -0.90533,12.8667 -0.90533,15.4 0,2.5334 7.24533,-19.3733 11.23067,-19.3733 3.984,0 4.528,2.8933 2.89733,8.5067 -1.63067,5.6133 -5.43333,12.8666 -3.62267,12.8666 1.812,0 6.97467,-24.3733 9.96267,-21.3733 2.988,2.9867 1.84133,22.9067 -3.804,28.56 -5.64533,5.64 -22.25333,2.1067 -31.92533,-4.84"
             style="fill:#f7a491;fill-opacity:1;fill-rule:nonzero;stroke:none;stroke-width:0.133333"
             id="path120" />
          <path
             d="m -153.56506,933.85543 c 2.04,-2.16 7.968,-10.61334 18.06534,-7.26667 8.74133,2.90667 12.18666,11.92 14.664,15.98667 -0.70934,-4.10667 -2.36667,-11.17334 -0.42934,-19.18667 5.152,-21.32 31.246668,-19.4 30.778668,0.37333 -0.184,7.76 -2.978667,12.50667 -6.910666,20.82667 1.604,-1.76 6.406666,-7.57333 13.010666,-10.97333 19.257333,-9.92 29.606666,14.26666 15.98,27.09333 -7.045334,6.64 -16.005333,6.81333 -21.476,7.45333 4.745333,1.33334 7.585333,1.73334 12.232,4.68 24.066666,15.25334 -9.418667,56.44001 -27.511998,16.78667 -0.0227,-0.04 -0.11867,-0.04 -0.17733,-0.0667 0.828,5.61333 2.42266,12.48004 0.11066,20.42674 -6.26266,21.52 -34.88533,17.7333 -29.92133,-6.6267 1.55333,-7.61337 6.612,-15.68004 6.91867,-16.3067 -3.44667,3.68 -8.536,9.79999 -15.896,12.66666 -18.95334,7.41334 -27.98934,-19.34666 -10.52934,-30.62666 7.81467,-5.05334 15.572,-4.32 18.31334,-5.05334 -6.47734,-1.56 -12.576,-3.37333 -17,-8.8 -5.98667,-7.34666 -2.772,-14.6 -2.96267,-15.58666 0.91467,-1.93334 1.828,-3.86667 2.74133,-5.8 z m 33.932,41.53333 c 4.94,2.57333 11.176,-0.73333 13.69734,-5.50667 3.49066,-6.58666 1.28933,-13.37333 -3.65334,-15.69333 -5.16,-2.41333 -11.1,-0.0933 -14.252,6.17333 -2.92266,5.81334 -0.93733,12.85334 4.208,15.02667"
             style="fill:#f7cc7f;fill-opacity:1;fill-rule:nonzero;stroke:none;stroke-width:0.133333"
             id="path122" />
          <path
             d="m -86.583725,644.58877 c 0,0 -21.734665,-0.48 -32.845335,16.41333 -11.10933,16.90667 -23.184,65.21333 -4.83066,98.54666 18.356,33.32 41.781328,25.10667 51.442661,21.73334 9.66,-3.38667 28.739999,-10.86667 38.399999,-42.02667 9.66,-31.16 2.656,-101.18666 -52.166665,-94.66666"
             style="fill:#f47458;fill-opacity:1;fill-rule:nonzero;stroke:none;stroke-width:0.133333"
             id="path124" />
          <path
             d="m -580.66105,805.09543 c 0,0 15.75067,-2.37333 29.264,48.76 15.316,57.94666 -1.17466,117.96 -26.51066,133.16 -25.336,15.19997 -35.77467,12.26666 -35.77467,12.26666 l 3.97733,35.74671 c 0,0 74.85467,-16.76 85.04934,-80.74671 16.708,-104.86666 -32.58,-158.87999 -32.58,-158.87999 0,0 -9.26934,1.48 -12.148,2.65333 -3.07734,1.25333 -11.27734,7.04 -11.27734,7.04"
             style="fill:#466eb6;fill-opacity:1;fill-rule:nonzero;stroke:none;stroke-width:0.133333"
             id="path126" />
          <path
             d="m -619.35305,926.18876 c 0,0 0,61.82667 0,74.86664 0,13.04 14.97334,101.3334 33.328,131.5734 18.35467,30.24 43.23467,63.96 48.384,65.8933 5.14934,1.9333 16.34134,9.0267 22.13734,3.2267 5.796,-5.8 10.384,-3.1467 17.63066,-6.28 7.24533,-3.1467 -0.96667,-13.52 -11.10933,-23.6667 -10.144,-10.1467 -12.31733,-12.56 -10.62667,-14.2533 1.68934,-1.6934 9.90134,7.7333 14.24934,6.28 4.34666,-1.4534 -2.656,-16.6667 -14.00934,-21.9734 -11.34933,-5.32 -29.46266,-15.6933 -31.15333,-21.2533 -1.69067,-5.56 -1.69067,-4.1067 -1.69067,-5.56 0,-1.44 -12.79866,-89.1067 -12.79866,-106.2667 0,-17.14664 -5.072,-72.93331 -5.072,-72.93331 l -49.26934,-9.65333"
             style="fill:#f7a491;fill-opacity:1;fill-rule:nonzero;stroke:none;stroke-width:0.133333"
             id="path128" />
          <path
             d="m -585.11305,807.74876 c -6.58666,0.82667 -24.45866,7.34667 -30.73733,28.6 -6.27867,21.25334 -22.82266,81.62667 -19.92533,111.09333 0,0 70.52133,9.17334 70.52133,6.28 0,-2.90666 15.42667,-78.49333 7.728,-111.58666 -6.71467,-28.85333 -16.13733,-35.81333 -27.58667,-34.38667"
             style="fill:#50bfa5;fill-opacity:1;fill-rule:nonzero;stroke:none;stroke-width:0.133333"
             id="path130" />
          <path
             d="m -481.54772,810.45543 49.024,176.18666 v 0 c -2.16133,-23.01333 -4.53333,-44.98666 -6.90533,-60.94666 -7.96933,-53.61334 -31.15333,-112.02667 -31.15333,-112.02667 0,0 -4.31467,-1.29333 -10.96534,-3.21333"
             style="fill:#466eb6;fill-opacity:1;fill-rule:nonzero;stroke:none;stroke-width:0.133333"
             id="path132" />
          <path
             d="M -195.76772,1165.6021 H -60.110393 V 979.36209 l -135.657327,7.25334 v 178.98667"
             style="fill:#3c8f7c;fill-opacity:1;fill-rule:nonzero;stroke:none;stroke-width:0.133333"
             id="path134" />
          <path
             d="m -195.76772,972.09543 h 129.627994 c 3.329333,0 6.029333,3.25333 6.029333,7.26666 v 0 c 0,4 -2.7,7.25334 -6.029333,7.25334 H -195.76772 l 0.11066,-0.04 c 8.95734,-4.05334 8.908,-10.45334 -0.11066,-14.48"
             style="fill:#3c8f7c;fill-opacity:1;fill-rule:nonzero;stroke:none;stroke-width:0.133333"
             id="path136" />
          <path
             d="m -192.06106,974.24209 h 121.460001 c 2.344,0 4.244,2.29334 4.244,5.12 v 0 c 0,2.81334 -1.9,5.10667 -4.244,5.10667 H -192.05839 c 4.11467,-3.16 4.108,-7.06667 -0.003,-10.22667"
             style="fill:#fae0b2;fill-opacity:1;fill-rule:nonzero;stroke:none;stroke-width:0.133333"
             id="path138" />
          <path
             d="m 4.706939,832.2421 c 0,0 -10.1586664,10.17333 -21.026666,48.77333 -10.866667,38.6 -16.408,128.97337 -25.825333,138.38667 -9.42,9.4267 -71.00533,58.4533 -82.11466,56.76 -11.108,-1.6933 -35.984,-30.6667 -43.712,-30.6667 -7.72934,0 -6.76267,7 -2.89734,10.8667 3.86267,3.8533 8.572,8.3333 6.27867,10.6267 -2.29467,2.2933 -2.29467,2.2933 -2.29467,2.2933 0,0 -34.41466,-9.0667 -40.21066,-5.68 -5.796,3.3867 5.55466,11.3467 5.55466,17.1467 0,5.8 -1.41866,5.6933 -0.72533,12.08 0.69467,6.3866 2.29467,11.4666 5.31333,14.4933 3.02,3.0133 41.056,14 78.248,8.9333 37.193335,-5.08 82.596,-22.9466 116.1666659,-64.4933 C 31.030938,1010.2288 24.306939,879.66876 23.544272,866.65543 21.612272,833.6821 4.706939,832.2421 4.706939,832.2421"
             style="fill:#f47458;fill-opacity:1;fill-rule:nonzero;stroke:none;stroke-width:0.133333"
             id="path140" />
          <path
             d="m 1861.5509,124.24211 28.2267,-5.61333 6.88,-28.506666 32.0933,-4.053333 -2.0533,-32.653332 36.0933,-6.186667 1.8133,-30.279999 33.7334,-11.6266666 4.44,12.7599996 -25.2134,8.693333 -1.92,31.959999 -34.6933,5.946667 2.0933,33.199999 -35.4266,4.466666 -6.7067,27.84 -26.1733,5.21333 -0.5734,19.21334 -13.52,-0.45334 0.9067,-29.92"
             style="fill:#50bfa5;fill-opacity:1;fill-rule:nonzero;stroke:none;stroke-width:0.133333"
             id="path142" />
          <path
             d="m 1700.7642,358.93544 16.8267,-30.8 -15.84,-31.32 c -1.8,-3.57333 1.2667,-7.65333 5.2,-6.92 l 34.4933,6.49334 24.8934,-24.74667 c 2.8266,-2.81333 7.6666,-1.16 8.1733,2.81333 l 4.4933,34.8 31.2267,16.02667 c 3.5467,1.82666 3.4667,6.94666 -0.1467,8.65333 l -31.72,15.02667 -5.5866,34.64 c -0.64,3.94666 -5.5334,5.45333 -8.28,2.54666 l -24.08,-25.52 -34.68,5.37334 c -3.9467,0.61333 -6.8934,-3.56 -4.9734,-7.06667"
             style="fill:#f47458;fill-opacity:1;fill-rule:nonzero;stroke:none;stroke-width:0.133333"
             id="path144" />
          <path
             d="m -564.97305,260.65544 20.67867,-28.34666 -11.63333,-33.10667 c -1.32534,-3.77333 2.24933,-7.42666 6.04933,-6.18666 l 33.356,10.90666 27.89333,-21.30666 c 3.176,-2.41334 7.756,-0.14667 7.74933,3.85333 l -0.064,35.09333 28.87334,19.94667 c 3.28666,2.26666 2.54266,7.32 -1.26,8.56 l -33.396,10.77333 -10.04934,33.62667 c -1.144,3.82666 -6.18266,4.68 -8.52666,1.44 l -20.57467,-28.42667 -35.08533,0.84 c -3.99467,0.0933 -6.36533,-4.44 -4.01067,-7.66667"
             style="fill:#f7cc7f;fill-opacity:1;fill-rule:nonzero;stroke:none;stroke-width:0.133333"
             id="path146" />
          <path
             d="M 92.150937,39.602116 C 90.80027,20.135449 105.4856,3.2554498 124.9496,1.9087831 c 19.46667,-1.34666661 36.34134,13.3333329 37.69334,32.7999989 1.35066,19.466666 -13.33334,36.333333 -32.8,37.693333 -19.464,1.346666 -36.340003,-13.333333 -37.692003,-32.799999"
             style="fill:#f7cc7f;fill-opacity:1;fill-rule:nonzero;stroke:none;stroke-width:0.133333"
             id="path148" />
          <path
             d="m 152.0656,139.36211 c -2.10933,-10.24 -3.38533,-21.21333 -6.88133,-31.09333 -3.008,-8.493333 -16.264,-5.89333 -15.592,3.22667 0.82267,11.17333 4.312,22.49333 6.65333,33.44 0.948,4.42666 6.81067,6.49333 10.69334,5.13333 4.744,-1.66667 6.04266,-6.24 5.12666,-10.70667 v 0"
             style="fill:#f7cc7f;fill-opacity:1;fill-rule:nonzero;stroke:none;stroke-width:0.133333"
             id="path150" />
          <path
             d="m 212.6136,95.602114 c -11.71067,-6.906666 -21.916,-15.466666 -32.72133,-23.626666 -8.44134,-6.373333 -17.54133,4.6 -10.59867,12.173333 9.97067,10.893333 23.06,19.399999 35.696,26.853329 4,2.36 9.55867,0.0533 11.512,-3.89333 2.18933,-4.41333 0.12,-9.146666 -3.888,-11.506666 v 0"
             style="fill:#f7cc7f;fill-opacity:1;fill-rule:nonzero;stroke:none;stroke-width:0.133333"
             id="path152" />
          <path
             d="m 190.43627,32.348782 c -2.64934,2.133334 -3.18,5.186667 -1.54267,8.16 3.96,7.173333 14.012,6.826667 21.15067,6.586667 7.44933,-0.266667 14.9,-1.773334 21.944,-4.173334 10.416,-3.559999 4.76266,-19.719999 -5.68267,-16.146666 -20.436,6.973333 -28.17333,-0.6 -35.86933,5.573333"
             style="fill:#f7cc7f;fill-opacity:1;fill-rule:nonzero;stroke:none;stroke-width:0.133333"
             id="path154" />
          <path
             d="m 179.1856,-36.344549 c -10.28133,15.039999 -18.684,20.119999 -17.376,28.399999 0.764,4.8399999 4.592,7.15999986 9.26533,6.0933332 5.524,-1.2533333 8.532,-7.1066665 11.84267,-11.2133332 3.176,-3.946666 6.29067,-7.893333 9.12533,-12.093333 2.57334,-3.813333 2.93467,-8.746666 -0.83466,-12.026666 -3.16,-2.746667 -9.41067,-2.986667 -12.02267,0.84 v 0"
             style="fill:#f7cc7f;fill-opacity:1;fill-rule:nonzero;stroke:none;stroke-width:0.133333"
             id="path156" />
          <path
             d="m 139.12427,-38.957883 c -3.288,-9.106666 -4.00933,-12.426666 -8.27333,-16.666666 -3.70667,-3.68 -11.53067,-1.333333 -12.04934,4.093333 -0.60266,6.333334 0.72134,8.68 4.17734,18.266667 1.56666,4.333333 6.528,6.76 10.91333,5.226666 4.34667,-1.52 6.80533,-6.546666 5.232,-10.92 v 0"
             style="fill:#f7cc7f;fill-opacity:1;fill-rule:nonzero;stroke:none;stroke-width:0.133333"
             id="path158" />
          <path
             d="M 95.853603,-16.891216 C 81.029604,-28.144549 78.014937,-31.317883 72.192271,-30.704549 c -3.414667,0.36 -7.248,3.64 -6.502667,7.466666 1.385333,7.12 5.526667,9.053333 19.157333,18.9999996 3.654667,2.6666666 8.676,2.7999999 11.826666,-0.8266666 2.824,-3.24 2.8,-9.066666 -0.82,-11.826666 v 0"
             style="fill:#f7cc7f;fill-opacity:1;fill-rule:nonzero;stroke:none;stroke-width:0.133333"
             id="path160" />
          <path
             d="m 36.309605,34.735449 c -5.841333,3.093333 -3.494667,13.2 2.832,14.026666 6.065333,0.786667 8.405333,-0.186666 37.834666,-5.56 4.543999,-0.826666 8.287999,-4.146666 7.941333,-9.119999 -0.293334,-4.226667 -4.550667,-8.773333 -9.126667,-7.946667 -30.562666,5.52 -33.621332,5.493333 -39.481332,8.6"
             style="fill:#f7cc7f;fill-opacity:1;fill-rule:nonzero;stroke:none;stroke-width:0.133333"
             id="path162" />
          <path
             d="m 82.414937,82.882114 c -16.129333,15.6 -18.490666,12.853333 -24.859999,22.386666 -2.913334,4.37333 1.890666,11.33333 6.961333,10.4 6.509333,-1.2 8.257333,-2.29333 16.741333,-9.01333 4.928,-3.90667 9.641333,-8.093336 14.169333,-12.453336 3.357333,-3.24 2.452,-9.306666 -0.844,-12.173333 -3.766667,-3.28 -8.810667,-2.4 -12.168,0.853333 v 0"
             style="fill:#f7cc7f;fill-opacity:1;fill-rule:nonzero;stroke:none;stroke-width:0.133333"
             id="path164" />
          <path
             d="m -183.75172,47.455449 28.052,-18.6 -10.98667,-22.3599993 27.04133,-19.2933327 -7.32666,-23.253333 18.44,-17.093333 -7.23734,-7.013333 -24.66266,22.866666 6.94266,22.026666 -28.13066,20.0799997 10.80666,21.9999993 -25.42266,16.84 12.484,3.8"
             style="fill:#86b1f2;fill-opacity:1;fill-rule:nonzero;stroke:none;stroke-width:0.133333"
             id="path166" />
          <path
             d="m 2055.4176,222.86878 -32.7867,-7.57334 -8.6667,23.36 -32.6133,-6.34666 -11.84,21.30666 -25.0933,-1.62666 -0.1067,10.08 33.56,2.17333 11.2133,-20.2 33.9334,6.61333 8.52,-22.97333 29.72,6.86667 -5.84,-11.68"
             style="fill:#f7cc7f;fill-opacity:1;fill-rule:nonzero;stroke:none;stroke-width:0.133333"
             id="path168" />
          <path
             d="m -224.20506,232.53544 c 0,0 10.29067,-11.52 28.25734,-9.78666 16.02,1.54666 25.832,15.34666 24.40133,30.17333 -1.65867,17.16 -18.668,36.01333 -59.44267,49.89333 -37.36666,-21.41333 -50.45733,-43.18666 -48.79999,-60.34666 1.43333,-14.82667 13.70133,-26.49334 29.72133,-24.94667 17.968,1.73333 25.86266,15.01333 25.86266,15.01333"
             style="fill:#f48c7f;fill-opacity:1;fill-rule:nonzero;stroke:none;stroke-width:0.133333"
             id="path170" />
          <path
             d="m -357.29572,226.52211 c 15.31733,4.02667 27.836,6.49333 40.252,8.33333 4.09333,0.6 11.016,2.86667 14.37067,-0.22666 1.744,-1.61334 2.304,-3.8 0.93333,-5.89334 -2.51333,-3.85333 -8.87867,-3.42666 -13.00267,-4.04 -12.576,-1.86666 -26.716,-4.57333 -40.84933,-8.14666 -2.648,-0.66667 -5.40267,1.58666 -5.83867,4.13333 -0.496,2.89333 1.484,5.14667 4.13467,5.84 v 0"
             style="fill:#f48c7f;fill-opacity:1;fill-rule:nonzero;stroke:none;stroke-width:0.133333"
             id="path172" />
          <path
             d="m -152.19039,290.04211 c 6.00133,1 12.01733,1.88 18.03333,2.78667 5.75467,0.85333 12.404,2.88 18.148,1.73333 4.23867,-0.84 5.40934,-6.13333 1.40267,-8.28 -5.18133,-2.78667 -12.03733,-2.78667 -17.80933,-3.64 -6.02,-0.88 -12.036,-1.77333 -18.068,-2.57333 -6.444,-0.84 -8.156,8.90666 -1.70667,9.97333 v 0"
             style="fill:#f48c7f;fill-opacity:1;fill-rule:nonzero;stroke:none;stroke-width:0.133333"
             id="path174" />
          <path
             d="m -313.66772,313.61544 c 9.45867,-11.52 19.24,-14.04 26.996,-17.84 4.14667,-2.02666 2.908,-7.89333 -1.80133,-7.86666 -12.90267,0.08 -25.30534,9.76 -33.01467,19.36 -4.05867,5.04 3.69467,11.37333 7.82,6.34666 v 0"
             style="fill:#f48c7f;fill-opacity:1;fill-rule:nonzero;stroke:none;stroke-width:0.133333"
             id="path176" />
          <path
             d="m -249.15172,355.86877 c 0.704,-6.25333 2.568,-12.18666 5.73333,-17.62666 1.93867,-3.33334 10.604,-12.14667 3.82267,-15.06667 -6.38667,-2.76 -11.62667,7.64 -13.91467,12.01333 -3.06666,5.86667 -4.97866,12.38667 -5.65733,18.96 -0.66533,6.46667 9.28,8.22667 10.016,1.72 v 0"
             style="fill:#f48c7f;fill-opacity:1;fill-rule:nonzero;stroke:none;stroke-width:0.133333"
             id="path178" />
          <path
             d="m -192.41439,325.76211 c 2.972,2.93333 5.94667,5.86666 8.92,8.8 2.96533,2.93333 5.62667,6.94666 10.16533,6.70666 2.552,-0.12 3.89734,-2.45333 3.95467,-4.73333 0.10267,-4.14667 -4.86267,-7.36 -7.58667,-10.01333 -2.98933,-2.92 -5.97866,-5.82667 -8.968,-8.74667 -1.988,-1.93333 -5.59733,-1.26666 -7.23466,0.74667 -1.89067,2.33333 -1.236,5.28 0.74933,7.24 v 0"
             style="fill:#f48c7f;fill-opacity:1;fill-rule:nonzero;stroke:none;stroke-width:0.133333"
             id="path180" />
          <path
             d="m -259.94772,189.38878 c -8.08933,-32.66667 -7.816,-32.77333 -10.00933,-35.70667 -2.24534,-2.98666 -7.352,-1.96 -7.94667,1.86667 -0.59067,3.78667 -0.42667,3.17333 8.21333,37.50667 0.68667,2.71999 4.28267,3.94666 6.70267,3.03999 2.88933,-1.09333 3.72133,-3.95999 3.04,-6.70666 v 0"
             style="fill:#f48c7f;fill-opacity:1;fill-rule:nonzero;stroke:none;stroke-width:0.133333"
             id="path182" />
          <path
             d="m -205.04506,197.40211 c 2.77734,-4.8 5.01067,-9.84 6.70667,-15.12 1.576,-4.90666 4.65333,-12.21333 0.51333,-16.42666 -0.888,-0.90667 -2.77066,-1.17334 -3.89733,-0.64 -4.71067,2.25333 -4.86667,9.24 -6.33867,13.76 -1.60533,4.92 -3.74133,9.68 -6.16,14.26666 -1.27066,2.41333 0.13334,5.58667 2.50667,6.66667 2.68267,1.22666 5.3,-0.14667 6.66933,-2.50667 v 0"
             style="fill:#f48c7f;fill-opacity:1;fill-rule:nonzero;stroke:none;stroke-width:0.133333"
             id="path184" />
          <path
             d="m -128.39306,214.22878 c 1.25334,-2.2 -0.292,-4.69334 -2.18266,-5.8 -3.892,-2.28 -9.944,0.92 -13.73734,2.44 -4.41866,1.77333 -8.62266,3.97333 -12.69733,6.42666 -2.34933,1.42667 -2.63467,5.01334 -1.12133,7.10667 1.77066,2.44 4.68933,2.45333 7.096,1.12 15.71733,-8.74667 19.55066,-5.85333 22.64266,-11.29333"
             style="fill:#f48c7f;fill-opacity:1;fill-rule:nonzero;stroke:none;stroke-width:0.133333"
             id="path186" />
          <path
             d="m 289.87093,235.60211 -20.89333,47.68 -53.01333,-0.97333 0.252,-13.86667 43.76133,0.78667 21.58667,-49.25334 59.19999,10.78667 10.30667,-34.50667 12.97333,5.08 -13.54666,45.32 -60.62667,-11.05333"
             style="fill:#f7cc7f;fill-opacity:1;fill-rule:nonzero;stroke:none;stroke-width:0.133333"
             id="path188" />
          <path
             d="m 1570.7376,181.32211 c -2.8134,-28.85333 -37.08,-44.49333 -62.6667,-36.82666 -28.2667,8.45333 -47.28,37.54666 -45.08,66.71999 2.4,31.58667 26.2933,51.84 55.2,47.62667 28.1333,-4.09333 40.24,-32.70667 26.6133,-55.73333 -9.7733,-16.49333 -27.52,-19.44 -34.5866,-12.66667 -5.52,5.28 -2.9334,14.84 5.1733,14.78667 3.2533,-0.0133 6.0533,-2.46667 7.16,-5.21334 7.36,1.14667 16.5867,11.98667 15.24,26.28 -1.72,18.24 -22.96,24.08 -38.0933,19.18667 -19.2534,-6.21333 -26.84,-27.32 -24.5467,-46.01333 2.4133,-19.65333 16.9867,-38 36.0933,-43.78667 21.64,-6.56 44.8267,5.90667 51.5467,27.41334 1.6,5.08 8.4533,3.38666 7.9467,-1.77334"
             style="fill:#86b1f2;fill-opacity:1;fill-rule:nonzero;stroke:none;stroke-width:0.133333"
             id="path192" />
          <path
             d="m 1745.6309,1469.3754 c 0,0 3.1333,27.04 3.1333,31.64 0,4.5867 0,4.5867 0,4.5867 l -2.24,4.6666 -0.8933,1.8534 16.1733,22.7066 c 0,0 64.9734,0.96 66.4134,0.96 1.4533,0 -8.6934,-15.6933 -8.6934,-15.6933 0,0 -21.4933,-16.1867 -25.36,-27.5333 -3.8533,-11.36 3.2934,-35.0267 3.2934,-35.0267 l -51.8267,11.84"
             style="fill:#f7a491;fill-opacity:1;fill-rule:nonzero;stroke:none;stroke-width:0.133333"
             id="path194" />
          <path
             d="m 1432.4709,1307.5221 c 0,0 -23.1333,14.36 -26.7333,17.2133 -3.5867,2.8533 -3.5867,2.8533 -3.5867,2.8533 l -2.2667,4.6534 -0.8933,1.8533 -27.84,1.44 c 0,0 -41.1467,-50.28 -42.04,-51.4133 -0.9067,-1.1333 11.8267,1.7067 11.8267,1.7067 0,0 25.9733,3.5066 37.2666,-0.52 11.2934,-4.04 34.1467,-26.5334 34.1467,-26.5334 l 20.12,48.7467"
             style="fill:#f7a491;fill-opacity:1;fill-rule:nonzero;stroke:none;stroke-width:0.133333"
             id="path196" />
          <path
             d="m 1642.7376,1053.7354 -249.2267,212.28 38.4,54.3467 c 0,0 256.12,-159.04 269.52,-160.84 13.4,-1.8133 24.2667,4.3467 26.8133,14.12 2.5334,9.7867 8.9867,303.2666 8.9867,303.2666 h 66.5333 l 34.7067,-369.4933 -195.7333,-53.68"
             style="fill:#50bfa5;fill-opacity:1;fill-rule:nonzero;stroke:none;stroke-width:0.133333"
             id="path198" />
          <path
             d="m 2001.8176,750.9621 c 18.44,-12.09334 61.76,-58.57333 76.44,-74.4 0.1466,-1.85333 1.5466,-12.61333 13.3466,-26.26667 8.3334,-9.65333 14.6534,-31.68 20.12,-25.42666 5.4534,6.24 -8.1066,23.73333 -1.8933,23.84 6.2133,0.12 37.0267,-34.52 41.9867,-28.86667 4.9466,5.65333 -26.3467,36.45333 -20.7867,36.54667 5.5467,0.10666 30.96,-31.08 37.96,-23.08 7,7.98666 -33.3067,33.92 -29.5467,38.21333 3.76,4.28 28.7334,-12.72 34.3734,-6.28 5.64,6.44 -35.2267,21.6 -31.96,21.66667 3.2666,0.0533 26.84,-0.58667 27.0133,3.96 0.2,5.13333 -59.64,13.12 -66.9733,22 v 0 c -15.64,24.89333 -43.4667,70.37333 -71.6534,90.31999 -34.4933,24.41334 -114.2,76.21333 -114.2,76.21333 l -39.5866,-51.15999 c 0,0 103.4933,-62.94667 125.36,-77.28"
             style="fill:#f7a491;fill-opacity:1;fill-rule:nonzero;stroke:none;stroke-width:0.133333"
             id="path200" />
          <path
             d="m 2109.8309,659.7221 c 1.5333,3.01333 2.2,6.30667 2.4133,9.61333 -0.12,0.53334 1.3334,11.22667 -7.7866,19.36 3.56,-6.61333 7.4666,-13.96 5.3733,-28.97333"
             style="fill:#f48c7f;fill-opacity:1;fill-rule:nonzero;stroke:none;stroke-width:0.133333"
             id="path202" />
          <path
             d="m 1636.4442,695.0021 c -14.64,-16.49333 -44.2933,-72.68 -54.32,-91.8 0.3334,-1.82667 1.7867,-12.57333 -6.0266,-28.85333 -5.52,-11.49333 -5.8534,-34.38667 -12.76,-29.8 -6.9067,4.6 1.6133,25.02667 -4.4134,23.52 -6.0133,-1.52 -26.7066,-43.01333 -32.9733,-38.85333 -6.2667,4.16 15.8933,42.08 10.5067,40.72 -5.3867,-1.34667 -21.76,-38.10667 -30.6,-32.21334 -8.8534,5.89334 23.2666,41.45334 18.52,44.61334 -4.7467,3.16 -24.4134,-19.78667 -31.5334,-15.04 -7.12,4.73333 28.3467,30.05333 25.1734,29.25333 -3.16,-0.78667 -25.76,-7.57333 -27.1067,-3.24 -1.5333,4.90666 54.1333,28.26666 58.8933,38.76 v 0 c 8.5734,28.12 23.5467,79.29333 45.5334,105.91999 26.9066,32.58667 90.2933,103.41334 90.2933,103.41334 l 51.6,-39.02667 c 0,0 -83.44,-87.81333 -100.7867,-107.37333"
             style="fill:#f7a491;fill-opacity:1;fill-rule:nonzero;stroke:none;stroke-width:0.133333"
             id="path204" />
          <path
             d="m 1556.0442,578.6821 c -2.2666,2.52 -3.76,5.52 -4.84,8.65334 -0.027,0.54666 -4.2266,10.49333 2.4534,20.71999 -1.6934,-7.30666 -3.56,-15.42666 2.3866,-29.37333"
             style="fill:#f48c7f;fill-opacity:1;fill-rule:nonzero;stroke:none;stroke-width:0.133333"
             id="path206" />
          <path
             d="m 1746.5909,811.49543 v 0 c 7.5067,-11.2 20.44,-17.56 33.8933,-16.64 39.5734,2.69333 119.8267,9.02667 127.44,16.64 10.1467,10.14667 40.5734,76.32 11.5867,169.06666 -28.9733,92.73331 -44.92,83.08001 -68.5867,83.08001 -23.6666,0 -135.24,-52.6533 -135.24,-52.6533 l 30.9067,-199.49337"
             style="fill:#355389;fill-opacity:1;fill-rule:nonzero;stroke:none;stroke-width:0.133333"
             id="path208" />
          <path
             d="m 1678.2442,732.7621 -46.5333,60.70666 57.76,85.93333 c 0,0 -5.4267,63.84 -13.76,83.77334 -8.3333,19.92 -56.52,101.78667 -56.52,101.78667 0,0 117.0133,71.7333 231.4933,61.2267 0,0 32.24,-165.92004 41.2934,-181.85337 9.0533,-15.94667 96.3733,-94.92 96.3733,-94.92 l -42.3867,-68.46667 -73.1866,40.57334 c 0,0 -133.7467,-21.61334 -140.1867,-28.05334 -6.4533,-6.44 -54.3467,-60.70666 -54.3467,-60.70666"
             style="fill:#f7cc7f;fill-opacity:1;fill-rule:nonzero;stroke:none;stroke-width:0.133333"
             id="path210" />
          <path
             d="m 1829.1909,608.62877 c 0,0 -45.16,-23.90667 -60.6133,15.70666 0,0 -40.5734,-4.10666 -33.5734,37.92 0,0 -40.8266,20.52 -14.9733,73.41333 0,0 -11.3467,49.74667 46.8533,52.89334 0,0 8.6934,17.62666 35.2534,13.52 26.5733,-4.10667 33.3333,-11.10667 33.3333,-11.10667 0,0 47.0933,13.76 61.3467,-28.74667 0,0 32.36,-7.72 10.6266,-49.26666 0,0 28.2534,-53.85333 -21.4933,-70.04 0,0 -5.8,-55.05333 -56.76,-34.29333"
             style="fill:#f47458;fill-opacity:1;fill-rule:nonzero;stroke:none;stroke-width:0.133333"
             id="path212" />
          <path
             d="m 1847.4309,725.30877 c -3.6667,10.23999 -1.0267,20.54666 5.8933,23.02666 6.92,2.48 15.5067,-3.81333 19.1734,-14.05333 3.6666,-10.24 1.0266,-20.54667 -5.8934,-23.02667 -6.92,-2.48 -15.5066,3.81334 -19.1733,14.05334"
             style="fill:#f7a491;fill-opacity:1;fill-rule:nonzero;stroke:none;stroke-width:0.133333"
             id="path214" />
          <path
             d="m 1725.6176,700.1621 c -0.52,10.86667 5.0266,19.96 12.36,20.30667 7.3466,0.34666 13.72,-8.17334 14.24,-19.04 0.5066,-10.86667 -5.0267,-19.96 -12.3734,-20.30667 -7.3466,-0.34667 -13.72,8.17333 -14.2266,19.04"
             style="fill:#f7a491;fill-opacity:1;fill-rule:nonzero;stroke:none;stroke-width:0.133333"
             id="path216" />
          <path
             d="m 1777.2709,772.13543 c 0,0.70667 -5.8667,25.93333 -8.9867,39.25333 -1.16,4.97334 1.36,10.06667 6,12.18667 12.4267,5.66667 36.84,13.57333 53.72,-1.70667 1.5334,-1.4 2.36,-3.41333 2.2934,-5.49333 l -2.08,-60.17333 -50.9467,15.93333"
             style="fill:#f7a491;fill-opacity:1;fill-rule:nonzero;stroke:none;stroke-width:0.133333"
             id="path218" />
          <path
             d="m 1774.1242,786.25543 c 13.1334,6.62667 29.6667,6.76 48.2,-4.10667 2.3467,-1.38666 4.56,-2.84 6.64,-4.38666 l -0.7466,-21.56 -50.9467,15.93333 c 0,0.34667 -1.3733,6.42667 -3.1467,14.12"
             style="fill:#f48c7f;fill-opacity:1;fill-rule:nonzero;stroke:none;stroke-width:0.133333"
             id="path220" />
          <path
             d="m 1813.4042,633.17543 c 0,0 22.24,5.88 35.3067,27.52 13.0667,21.64 20.28,84.18667 -26.3867,111.54667 -46.6666,27.36 -80.6133,-15.01334 -79.7333,-55.09333 0.88,-40.08 18.6933,-91.32 70.8133,-83.97334"
             style="fill:#f7a491;fill-opacity:1;fill-rule:nonzero;stroke:none;stroke-width:0.133333"
             id="path222" />
          <path
             d="m 1737.2576,795.5621 c -21.48,16.24 -43.9734,99.50666 -52.4934,121.23999 l -6.8533,39.92 87.4267,-154.42666 c 0,0 -23.4534,-10.24 -28.08,-6.73333"
             style="fill:#466eb6;fill-opacity:1;fill-rule:nonzero;stroke:none;stroke-width:0.133333"
             id="path224" />
          <path
             d="m 1843.4042,816.62876 c 0,0 -2.6266,102.58667 5.1067,137.84 7.7333,35.26667 27.9467,47.58664 27.9467,47.58664 l 9.9466,-41.02664 c 0,0 -9.9466,-90.6 -13.6266,-139.50666 -0.5467,-7.42667 -29.3734,-4.89334 -29.3734,-4.89334"
             style="fill:#466eb6;fill-opacity:1;fill-rule:nonzero;stroke:none;stroke-width:0.133333"
             id="path226" />
          <path
             d="m 1733.7909,1551.4421 c -9.92,-1.2667 7.2133,-35.6667 12.7333,-41.1734 l 73,9.8267 c 0,0 35.1467,16.2933 43.48,24.6267 1.9734,1.9733 2.24,5.44 -6.3466,6.72 -27.5467,4.0933 -100.8534,2.7866 -122.8667,0"
             style="fill:#13375b;fill-opacity:1;fill-rule:nonzero;stroke:none;stroke-width:0.133333"
             id="path228" />
          <path
             d="m 1374.8442,1368.3487 c 8.56,5.1467 24.16,-28.36 25.04,-36.1066 l -58.9466,-46.4133 c 0,0 -45.48,-13.04 -54.6534,-3.8667 -8.3466,8.3333 69.0934,74.6933 88.56,86.3866"
             style="fill:#13375b;fill-opacity:1;fill-rule:nonzero;stroke:none;stroke-width:0.133333"
             id="path230" />
          <path
             d="m 496.55093,11.21545 -42.38667,54.586665 91.29333,16.053333 z"
             style="fill:#96d9c9;fill-opacity:1;fill-rule:nonzero;stroke:none;stroke-width:0.133333"
             id="path232" />
          <path
             d="m 253.7776,812.54876 c 2.34667,-0.16 20.09333,28.49334 31.21333,72.45333 11.10667,43.94667 34.77333,125.09331 34.77333,125.09331 0,0 38.4,77.5334 48.78667,87.92 10.38667,10.3867 20.45333,-0.36 30.90667,2.8934 3.22666,1 13.2,9.6666 13.2,9.6666 0,0 17.96,38.88 15.30666,41.5334 -2.66666,2.6533 -30.44,10.1466 -49.76,3.8666 -19.32,-6.28 -109.15999,-111.5733 -109.15999,-111.5733 0,0 -73.232,-227.96 -15.26667,-231.85334"
             style="fill:#f48c7f;fill-opacity:1;fill-rule:nonzero;stroke:none;stroke-width:0.133333"
             id="path244" />
          <path
             d="m 604.73759,847.5221 -8.69333,-9.01334 c 0,0 -15.93334,28.62667 -34.29333,69.18667 -18.34667,40.57333 -40.33334,90.57333 -47.81334,98.05337 -7.49333,7.4933 -70.52,94.1866 -89.59999,102.64 -19.08,8.4533 -13.17334,4.7466 -28.50667,2.9066 -11.49333,-1.3733 -10.24,6.9467 -2.76,10.8134 2.02667,1.04 4.32,1.7333 8.90667,4.9866 9.12,6.4667 16.92,15.6534 22.64,21.0134 2.21333,2.0666 -2.41334,5.8533 -5.01334,3.2666 -2.66666,-2.68 -11.76,-16.72 -15.56,-16.72 -3.8,0 -1.26666,9.6 0.36,12.68 1.64,3.08 -1.98666,2.1734 -5.24,-5.4266 -3.26666,-7.6134 -5.62666,-15.2134 -10.33333,-14.1334 -3.8,0.88 -1.46667,11.4 -0.42667,15.4534 -1.09333,-3.8534 -4.10666,-13.4534 -7,-13.4534 -3.62666,0 -5.25333,0.36 -5.25333,7.5067 0,7.16 2.53333,14.8267 10.86667,21.1333 8.33333,6.3067 31.66666,2.1067 41.25333,-1.72 6.54666,-2.6 13.06666,-13.24 19.62666,-16.7866 29.30667,-15.8 59.41334,-34.68 96.70667,-84.4 45.64,-60.86671 63.45333,-115.20004 63.45333,-115.20004 l -3.32,-92.78666"
             style="fill:#f4c0b8;fill-opacity:1;fill-rule:nonzero;stroke:none;stroke-width:0.133333"
             id="path246" />
          <path
             d="m 587.83092,1538.0421 c 0,0 -4.82666,-20.28 0,-44.92 4.84,-24.64 30.92,-150.2267 30.92,-176.3067 0,-26.08 12.56,-64.24 12.56,-64.24 l -76.79999,-19.32 -7.73334,74.8667 c 0,0 -4.10666,174.6133 -11.10666,181.6133 -7,7.0133 -36.61334,17.3467 -45.89334,17.3467 -10.37333,0 -26.8,0.7066 -26.8,5.9333 0,5.2267 1.45334,8.6 1.45334,8.6 l 123.39999,16.4267"
             style="fill:#f4c0b8;fill-opacity:1;fill-rule:nonzero;stroke:none;stroke-width:0.133333"
             id="path248" />
          <path
             d="m 679.28426,1241.5621 9.50666,64.6267 c 0,0 22.6,189.4133 17.38667,194.6266 -5.21334,5.2133 -28.89333,20.4667 -39.77333,21.68 -10.86667,1.2 -26.16,8.5467 -26.16,14.3333 0,11.72 122.19999,2.2134 122.19999,2.2134 0,0 3.86667,-8.7334 0,-21.5334 -3.86666,-12.8 -3.86666,-30.9066 -3.86666,-33.8133 0,-2.8933 0.25333,-0.48 0.25333,-5.0667 0,-4.5866 0,-6.04 0,-6.04 0,0 14.72,-90.32 -0.97333,-147.3199 l -5.56,-110.6134 -73.01333,26.9067"
             style="fill:#f4c0b8;fill-opacity:1;fill-rule:nonzero;stroke:none;stroke-width:0.133333"
             id="path250" />
          <path
             d="m 171.11227,609.5621 c 0,0 -28.25733,-0.33333 -47.81867,10.69333 -19.49466,11 -24.730663,37.24 -25.095997,57.74667 -0.472,26.48 8.218667,53.14666 24.733337,73.93333 16.53866,20.8 45.64533,30.16 45.64533,30.16 l 81.908,-52.21333 c 0,0 9.74666,-24.32 2.86666,-56.92 -6.89333,-32.61333 -5.08,-68.48 -82.23866,-63.4"
             style="fill:#184655;fill-opacity:1;fill-rule:nonzero;stroke:none;stroke-width:0.133333"
             id="path252" />
          <path
             d="m 309.1376,1453.9354 c 0,0 27.04,38.88 28.97333,44.1867 1.93333,5.32 15.21333,40.5866 15.21333,40.5866 l 103.85333,-50.48 -79.45333,-24.1466 -15.93333,-34.7867 -52.65333,24.64"
             style="fill:#f48c7f;fill-opacity:1;fill-rule:nonzero;stroke:none;stroke-width:0.133333"
             id="path254" />
          <path
             d="m 172.92427,1178.6821 84.77333,176.7733 55.78666,111.5867 c 0,0 49.50667,-19.08 61.82667,-31.4 l -40.09333,-140.56 -45.64,-162.7733 -95.96,-8.7334 -20.69333,55.1067"
             style="fill:#355389;fill-opacity:1;fill-rule:nonzero;stroke:none;stroke-width:0.133333"
             id="path256" />
          <path
             d="m 92.98427,1471.8687 c 0,0 3.864,26.08 3.864,27.7734 0,1.6933 -5.797333,26.8 -6.762666,33.5733 -0.966667,6.76 0,12.0667 0,12.0667 l 98.414666,-23.5467 c 0,0 -14.61067,-9.5333 -27.652,-16.7867 -13.04133,-7.24 -14.97333,-41.7733 -14.97333,-41.7733 l -52.89067,8.6933"
             style="fill:#f48c7f;fill-opacity:1;fill-rule:nonzero;stroke:none;stroke-width:0.133333"
             id="path258" />
          <path
             d="m 79.217604,1132.3088 c 0,0 16.858666,106.04 14.491999,141.52 -3.399999,50.9466 -16.906666,70.5199 -7.246666,204.1199 h 68.589333 c 0,0 4.83067,-71.7733 15.456,-127.32 10.62666,-55.5466 33.812,-148.7733 33.812,-148.7733 l 38.164,-86 -163.266666,16.4534"
             style="fill:#86b1f2;fill-opacity:1;fill-rule:nonzero;stroke:none;stroke-width:0.133333"
             id="path260" />
          <path
             d="m 118.90427,733.6421 c 3.30933,10.36 11.66933,16.94666 18.67467,14.70666 7.004,-2.22666 9.99866,-12.44 6.688,-22.79999 -3.308,-10.37334 -11.66934,-16.96 -18.67334,-14.72 -7.00533,2.24 -9.99866,12.45333 -6.68933,22.81333"
             style="fill:#f48c7f;fill-opacity:1;fill-rule:nonzero;stroke:none;stroke-width:0.133333"
             id="path262" />
          <path
             d="m 235.3776,711.5221 c 0.92,10.84 7.6,19.12 14.93333,18.49333 7.32,-0.61333 12.52,-9.90666 11.6,-20.74666 -0.92,-10.84 -7.61333,-19.12 -14.93333,-18.50667 -7.33333,0.62667 -12.52,9.92 -11.6,20.76"
             style="fill:#f48c7f;fill-opacity:1;fill-rule:nonzero;stroke:none;stroke-width:0.133333"
             id="path264" />
          <path
             d="m 1242.0842,744.6821 c 15.4934,-16.77334 48.1334,-86.61333 59.1734,-106.44 -0.24,-1.98667 -1.12,-13.54667 7.56,-30.48 6.1333,-11.97333 7.6933,-36.42666 14.3466,-31.12 6.64,5.30667 -2.96,26.65333 3.1334,25.37333 6.1066,-1.26666 28.9866,-44.41333 35.0133,-39.59999 6.0267,4.8 -18.1333,44.03999 -12.68,42.89333 5.4533,-1.13334 23.7733,-39.45333 32.2933,-32.65333 8.52,6.8 -25.4666,42.94666 -20.88,46.59999 4.56,3.64 25.4267,-19.73333 32.2934,-14.26666 6.8533,5.48 -29.9334,30.49333 -26.72,29.81333 3.2,-0.66667 26.1333,-6.6 27.2533,-1.89333 1.2667,5.32 -55.5867,27.08 -60.8933,38.01333 v 0 c -10.08,29.54667 -27.7867,83.36 -51.1734,110.54666 -28.6133,33.26667 -110.9333,125.50667 -110.9333,125.50667 l -34.2,-64.86667 c 0,0 88.0267,-77.53333 106.4133,-97.42666"
             style="fill:#966259;fill-opacity:1;fill-rule:nonzero;stroke:none;stroke-width:0.133333"
             id="path266" />
          <path
             d="m 1328.6176,613.53543 c 2.12,2.82667 3.4533,6.10667 4.36,9.52 0,0.58667 3.6533,11.45334 -3.56,22 2.0933,-7.72 4.3866,-16.28 -0.8,-31.52"
             style="fill:#6b4744;fill-opacity:1;fill-rule:nonzero;stroke:none;stroke-width:0.133333"
             id="path268" />
          <path
             d="m 85.685604,831.78876 c 0,0 7.969333,205.60004 0,244.00004 -7.970667,38.4 -11.628,63.32 -11.628,63.32 0,0 110.163996,21.4533 215.946666,-6.8 0,0 -15.94667,-71.7334 -23.18667,-146.36004 -7.24,-74.62667 -13.04,-173.4 -13.04,-173.4 0,0 -40.11067,-2.98666 -71.00533,-0.16 -70.22667,6.44 -97.086666,19.4 -97.086666,19.4"
             style="fill:#fae0b2;fill-opacity:1;fill-rule:nonzero;stroke:none;stroke-width:0.133333"
             id="path270" />
          <path
             d="m 151.18827,760.26876 -3.10267,56.25334 c 0,0 5.276,31.04 36.068,32.85333 30.792,1.81333 21.736,-64.48 21.736,-64.48 l -1.81067,-24.62667 h -52.89066"
             style="fill:#f48c7f;fill-opacity:1;fill-rule:nonzero;stroke:none;stroke-width:0.133333"
             id="path272" />
          <path
             d="m 204.90027,802.6421 c 0.74133,0 1.47733,-0.0133 2.208,-0.0533 -0.172,-10.04 -1.21867,-17.69333 -1.21867,-17.69333 l -1.81067,-24.62667 h -52.89066 l -0.46533,8.44 c 6.63466,11.29334 26.15999,33.93334 54.17733,33.93334"
             style="fill:#f27a6a;fill-opacity:1;fill-rule:nonzero;stroke:none;stroke-width:0.133333"
             id="path274" />
          <path
             d="m 91.957604,1512.5087 c 0,0 3.622666,-3.6266 16.302666,-2.5466 12.67867,1.0933 76.256,8.16 78.97333,8.16 2.716,0 39.09333,27.6133 40.724,32.6266 1.62933,5.0134 -78.58133,1.7334 -78.58133,1.7334 H 88.305604 c 0,0 -5.766667,-18.24 3.652,-39.9734"
             style="fill:#3c8f7c;fill-opacity:1;fill-rule:nonzero;stroke:none;stroke-width:0.133333"
             id="path276" />
          <path
             d="m 343.91093,1511.1754 c 0,0 -3.72,2.4933 -3.72,5.88 0,2.24 3.78667,17.5067 8.17333,28.3733 2.54667,6.3334 10.06667,9 16.05334,5.7067 l 110.14666,-60.7333 c 0,0 8.02667,-6.96 -43.92,-10.24 l -86.73333,31.0133"
             style="fill:#3c8f7c;fill-opacity:1;fill-rule:nonzero;stroke:none;stroke-width:0.133333"
             id="path278" />
          <path
             d="m 85.685604,831.78876 c 0,0 -15.645333,6.84 -24.822666,28.09334 -9.176,21.25333 -38.641333,117.37333 -18.837333,174.8533 0,0 8.921333,43.6934 54.809332,73.6534 45.886663,29.9466 125.899993,37.1466 130.427993,32.6133 4.52934,-4.5333 4.70934,-12.3867 4.70934,-17.4267 0,-5.04 10.512,-7.5733 10.512,-14.4533 0,-6.88 -17.75734,-8.0933 -38.164,-8.0933 0,0 -3.62267,-0.36 0.84533,-3.7467 4.468,-3.3733 10.14267,-7.6 9.17733,-14 -0.96666,-6.4 -5.13333,-6.1067 -9.05733,-2.1733 -3.92533,3.92 -16.90533,14.4933 -27.29067,11.4666 -10.384,-3.0133 -71.72799,-53.3733 -81.87066,-69.3066 0,0 4.052,-188.05337 -10.438666,-191.48004"
             style="fill:#f48c7f;fill-opacity:1;fill-rule:nonzero;stroke:none;stroke-width:0.133333"
             id="path280" />
          <path
             d="m 596.04426,838.50876 c 0,0 33.06666,-18.34666 68.16,-22.45333 35.09333,-4.12 85.43999,9.05333 85.43999,9.05333 l 29.04,419.18664 c 0,0 -130.41333,61.9467 -228.22666,0 0,0 26.26667,-176 26.26667,-200.7466 0,-24.7467 0,-24.7467 0,-24.7467 l 19.32,-180.29334"
             style="fill:#50bfa5;fill-opacity:1;fill-rule:nonzero;stroke:none;stroke-width:0.133333"
             id="path282" />
          <path
             d="m 463.03093,1516.6687 c -3.48,-0.4 -6.76,1.6534 -7.93334,4.9467 -1.36,3.8 -0.76,7.2 2.08,10.04 5.2,5.1867 95.82667,20.04 127.45333,19.3333 3.36,-0.067 8.16,-10.0533 3.2,-12.9466 -7.73333,-4.5334 -100.89333,-18.68 -124.79999,-21.3734"
             style="fill:#13375b;fill-opacity:1;fill-rule:nonzero;stroke:none;stroke-width:0.133333"
             id="path284" />
          <path
             d="m 489.77759,1507.0821 7.49334,15.2666 16.66666,4.5867 c 0,0 -7.73333,-27.2933 -14.49333,-26.0933 -6.76,1.2133 -9.66667,6.24 -9.66667,6.24"
             style="fill:#13375b;fill-opacity:1;fill-rule:nonzero;stroke:none;stroke-width:0.133333"
             id="path286" />
          <path
             d="m 640.23092,1537.8154 c -3.17333,-0.013 -6.04,2 -7.02666,5.0267 -0.78667,2.4266 -1.05334,5.2133 0.76,7.04 3.86666,3.8533 133.63999,1.2 133.63999,1.2 0,0 3.13334,-9.6534 -2.50666,-11.5867 -3.73334,-1.2933 -102.29333,-1.6267 -124.86667,-1.68"
             style="fill:#13375b;fill-opacity:1;fill-rule:nonzero;stroke:none;stroke-width:0.133333"
             id="path288" />
          <path
             d="m 679.33759,1517.0287 c -1.16,-2.12 -10.10667,0.12 -12.93333,5.4667 l 11.52,16.5333 13.52,-0.053 -12.10667,-21.9467"
             style="fill:#13375b;fill-opacity:1;fill-rule:nonzero;stroke:none;stroke-width:0.133333"
             id="path290" />
          <path
             d="m 968.23091,1433.2287 c 0,0 -5.22666,45.4 -13.71999,65.2 -8.49334,19.8134 -36.50667,32.3067 -61.14667,37.1734 -24.64,4.8533 -16.42667,8.7333 -12.81333,12.3466 3.6,3.6 110.38666,6.04 129.21328,2.6267 0,0 -7.24,-37.1733 -7.24,-42.96 0,-5.8 29.4667,-97.0933 29.4667,-97.0933 l -63.75999,22.7066"
             style="fill:#966259;fill-opacity:1;fill-rule:nonzero;stroke:none;stroke-width:0.133333"
             id="path292" />
          <path
             d="m 1009.7642,1550.5754 c 0,0 -1.4666,-7.56 -3.0933,-16.4 -20.59999,2.76 -67.71998,-2.0667 -91.33332,-4.8133 -7.22666,2.7333 -16.01333,3.5466 -23.24,4.9733 -24.62666,4.8533 -22.78666,11.32 -16.6,15.8133 4.12,3 115.44,3.84 134.26662,0.4267"
             style="fill:#f47458;fill-opacity:1;fill-rule:nonzero;stroke:none;stroke-width:0.133333"
             id="path294" />
          <path
             d="m 1178.3109,1422.5887 c 0,0 -2.88,55.8 3.0933,75.84 6.16,20.6534 14.9867,24.2 39.1734,30.9334 23.7466,6.6 14.7333,17.1733 11.12,20.7866 -3.6134,3.6 -86.72,3.84 -105.56,0.4267 0,0 7.2533,-37.1733 7.2533,-42.96 0,-5.8 -8.8,-99.6267 -8.8,-99.6267 l 53.72,14.6"
             style="fill:#966259;fill-opacity:1;fill-rule:nonzero;stroke:none;stroke-width:0.133333"
             id="path296" />
          <path
             d="m 1126.1376,1550.5754 c 0,0 1.48,-7.56 3.1066,-16.4 20.5867,2.76 67.72,-2.0667 91.3334,-4.8133 8.16,1.9733 14.7733,3.6133 21.9733,6.24 23.5867,8.6133 21.48,10.9333 17.8667,14.5466 -3.6,3.6 -115.44,3.84 -134.28,0.4267"
             style="fill:#f47458;fill-opacity:1;fill-rule:nonzero;stroke:none;stroke-width:0.133333"
             id="path298" />
          <path
             d="m 749.64425,825.10876 c 0,0 -28.25333,33.32 -13.76,89.12 14.49334,55.78667 49.50667,144.65334 92.73334,194.13334 6.99999,8 23.18666,24.9067 30.43999,29.7333 7.24,4.84 37.90667,8.2134 37.90667,8.2134 0,0 13.53333,-41.5334 9.66667,-45.4 -3.86667,-3.8667 -36.34667,-4.2267 -45.16,-13.04 -8.82667,-8.8134 -94.44,-262.76004 -111.82667,-262.76004"
             style="fill:#f4c0b8;fill-opacity:1;fill-rule:nonzero;stroke:none;stroke-width:0.133333"
             id="path300" />
          <path
             d="m 1022.9642,824.37543 c 0,0 -8.1466,5.08 -13.9333,20.05333 -5.8,14.97334 -35.86665,138.14667 -40.21332,156.01334 -3.36,13.8 -33.85333,54.32 -48.98666,73.84 -4.46667,5.76 -7.89334,10.56 -10.06667,10.56 -13.28,0 -35.33333,7.3733 -35.33333,12.88 0,5.4933 5.21333,6.08 13.90666,4.16 8.69334,-1.9333 2.10667,7.48 -1.02666,10.6133 -3.14667,3.1467 -16.52,21.0534 -11.77334,25.7867 4.73334,4.7333 16.12,8.0267 21.42667,8.0267 2.89333,0 8.74667,-0.32 19.45333,-9.0534 9,-7.3466 22.24,-22.3733 31.96,-31.04 34.93333,-31.1466 63.66662,-96.6 68.98662,-111.57331 5.3067,-14.97333 5.6,-170.26666 5.6,-170.26666"
             style="fill:#966259;fill-opacity:1;fill-rule:nonzero;stroke:none;stroke-width:0.133333"
             id="path302" />
          <path
             d="m 911.03092,1116.0021 c 0,0 3.62666,0.36 3.62666,7.4267 0,7.0666 -6.16,17.9333 -10.32,22.1066 -4.17333,4.16 -42.32,-5.9733 -42.32,-5.9733 0,0 13.88,0.3467 18.61334,-5.5333 2.12,-2.6267 6.13333,-14.9467 10.12,-14.9467 3.98666,0 -0.36,16.6667 -0.36,16.6667 0,0 7.61333,-21.92 11.58666,-21.92 3.98667,0 4.34667,3.9866 2.53334,10.6933 -1.81334,6.6933 4.06666,-10.4533 6.52,-8.52"
             style="fill:#f4c0b8;fill-opacity:1;fill-rule:nonzero;stroke:none;stroke-width:0.133333"
             id="path304" />
          <path
             d="m 941.68425,1437.7354 c 0,0 56.52,15.2133 120.62665,15.2133 64.12,0 190.1867,-32.6 190.1867,-32.6 0,0 -34.7734,-84.04 -46.7334,-148.5199 -11.96,-64.48 -20.64,-175.32 -20.64,-175.32 H 993.81758 l -11.96,76.7333 -40.17333,264.4933"
             style="fill:#466eb6;fill-opacity:1;fill-rule:nonzero;stroke:none;stroke-width:0.133333"
             id="path306" />
          <path
             d="m 1022.9642,824.37543 c 0,0 -12.4933,14.49333 -12.4933,59.41333 0,44.92 -2.1733,112.30666 -5.7867,135.49334 -3.6266,23.1867 -14.49329,80.7867 -14.49329,80.7867 0,0 31.87999,26.44 114.47999,19.2 82.5867,-7.2534 86.9333,-18.36 86.9333,-18.36 0,0 -11.5866,-186.68004 -11.5866,-206.25337 0,-19.56 -17.7334,-76.14667 -17.7334,-76.14667 0,0 -47.72,-4.93333 -69.4533,-3.25333 -21.7333,1.66667 -69.8667,9.12 -69.8667,9.12"
             style="fill:#fae0b2;fill-opacity:1;fill-rule:nonzero;stroke:none;stroke-width:0.133333"
             id="path308" />
          <path
             d="m 985.41758,648.06877 c 0,0 -34.74666,9.85333 -31.86666,45.53333 2.65333,32.89333 18.82666,31.22667 18.82666,31.22667 0,0 -11.82666,46.63999 23.90667,60.17333 33.70665,12.74666 46.37335,0 46.37335,0 0,0 14.6266,38.72 64.6133,23.77333 50,-14.94667 45.52,-45.26667 45.52,-45.26667 0,0 21.2933,8.37334 45.9333,-30.74666 24.6267,-39.13333 10.5734,-67.30667 -22.0266,-84.69333 0,0 10.8533,-49.81334 -39,-57.78667 -49.84,-7.97333 -62.0667,19.38667 -62.0667,19.38667 0,0 -8.8667,-30.53333 -61.9467,-9.53334 -34.78662,13.77334 -28.26662,47.93334 -28.26662,47.93334"
             style="fill:#13375b;fill-opacity:1;fill-rule:nonzero;stroke:none;stroke-width:0.133333"
             id="path310" />
          <path
             d="m 1123.1376,722.73543 c -3.6667,10.24 -1.0267,20.54667 5.8933,23.02667 6.92,2.48 15.5067,-3.8 19.1733,-14.05334 3.68,-10.22666 1.04,-20.54666 -5.88,-23.02666 -6.92,-2.48 -15.5066,3.81333 -19.1866,14.05333"
             style="fill:#966259;fill-opacity:1;fill-rule:nonzero;stroke:none;stroke-width:0.133333"
             id="path312" />
          <path
             d="m 1009.8042,732.89543 c 1.68,10.74667 8.9334,18.54667 16.1867,17.41333 7.2667,-1.13333 11.8,-10.77333 10.12,-21.52 -1.6667,-10.74666 -8.92,-18.54666 -16.1867,-17.41333 -7.2666,1.13334 -11.8,10.77334 -10.12,21.52"
             style="fill:#966259;fill-opacity:1;fill-rule:nonzero;stroke:none;stroke-width:0.133333"
             id="path314" />
          <path
             d="m 1069.4042,779.94876 1.9334,42.25334 c 0,0 0.96,16.42666 18.1066,18.6 17.16,2.17333 32.8534,-11.09334 32.8534,-24.38667 0,-1.69333 -8.4534,-59.65333 -8.4534,-59.65333 l -44.44,23.18666"
             style="fill:#966259;fill-opacity:1;fill-rule:nonzero;stroke:none;stroke-width:0.133333"
             id="path316" />
          <path
             d="m 1113.8442,756.7621 -44.44,23.18666 0.6934,15.02667 c 8.04,0.0533 19.9466,-0.58667 29.4933,-6.28 8.0267,-4.78667 12.5067,-10.86667 16.0933,-19.25333 -1.0666,-7.41334 -1.84,-12.68 -1.84,-12.68"
             style="fill:#6b4744;fill-opacity:1;fill-rule:nonzero;stroke:none;stroke-width:0.133333"
             id="path318" />
          <path
             d="m 393.07093,1110.1754 c 0,0 10.82667,7 17.25333,5.4667 6.42667,-1.5467 3.26667,-4.8267 0.24,-7.84 -3.01333,-3.0267 -11.10666,-6.8933 -11.10666,-6.8933 l -6.38667,9.2666"
             style="fill:#f48c7f;fill-opacity:1;fill-rule:nonzero;stroke:none;stroke-width:0.133333"
             id="path320" />
          <path
             d="m 179.12293,639.0821 c -17.54399,2.58667 -30.37599,15.01333 -39.69599,30.18667 -18.47734,30.06666 -3.45467,74.33333 1.61733,84.46666 5.072,10.14667 25.35866,36.22667 55.42666,36.22667 30.068,0 51.08,-27.53334 53.61334,-54.33334 3.4,-35.89333 -6.21334,-80.62666 -40.37067,-93.09333 -9.31067,-3.4 -20.33867,-4.97333 -30.59067,-3.45333"
             style="fill:#f48c7f;fill-opacity:1;fill-rule:nonzero;stroke:none;stroke-width:0.133333"
             id="path322" />
          <path
             d="m 663.07092,639.98877 c 0,0 -14.85333,-0.72 -31.52,7.24 -16.66666,7.97333 -34.05333,43.81333 -34.05333,75.69333 0,19.4 -8.58667,27.4 -15.30667,30.70666 -3.61333,1.76 -4.58666,6.45334 -1.93333,9.46667 6.57333,7.46667 13.41333,15.68 22.04,20.69333 32.69333,19.01334 65.61333,19.6 102.34666,12.85334 29.56,-5.41334 57.45334,-18.72 78.41334,-40.53334 3.94666,-4.10666 2.86666,-10.88 -2.14667,-13.57333 -6.93333,-3.73333 -15.12,-11.76 -18.22667,-29 -5.78666,-32.25333 -17.74666,-89.12 -99.61333,-73.54666"
             style="fill:#13375b;fill-opacity:1;fill-rule:nonzero;stroke:none;stroke-width:0.133333"
             id="path324" />
          <path
             d="m 707.35092,727.94876 c -2.36,10.62667 1.54667,20.53334 8.72,22.12 7.18667,1.6 14.92,-5.72 17.28,-16.33333 2.36,-10.62666 -1.54667,-20.52 -8.73333,-22.12 -7.17334,-1.6 -14.90667,5.72 -17.26667,16.33333"
             style="fill:#f4c0b8;fill-opacity:1;fill-rule:nonzero;stroke:none;stroke-width:0.133333"
             id="path326" />
          <path
             d="m 601.16426,713.78877 c 0,10.88 5.96,19.69333 13.30666,19.69333 7.36,0 13.32,-8.81333 13.32,-19.69333 0,-10.88 -5.96,-19.69334 -13.32,-19.69334 -7.34666,0 -13.30666,8.81334 -13.30666,19.69334"
             style="fill:#f4c0b8;fill-opacity:1;fill-rule:nonzero;stroke:none;stroke-width:0.133333"
             id="path328" />
          <path
             d="m 646.28426,783.81543 -3.62667,49.74667 c 0,0 1.69333,11.34666 15.21333,13.76 13.53334,2.41333 42.26667,-17.62667 42.26667,-28.25334 l -6.76,-57.48 -47.09333,22.22667"
             style="fill:#f4c0b8;fill-opacity:1;fill-rule:nonzero;stroke:none;stroke-width:0.133333"
             id="path330" />
          <path
             d="m 644.51092,808.0821 c 21.36,1.06666 38.56,-8.56 51.26667,-26.10667 l -2.4,-20.38667 -47.09333,22.22667 -1.77334,24.26667"
             style="fill:#f7a491;fill-opacity:1;fill-rule:nonzero;stroke:none;stroke-width:0.133333"
             id="path332" />
          <path
             d="m 613.07092,739.25543 c 3.26667,18.46667 8.69334,50.98667 37.68,54.33333 28.97334,3.34667 50.72,-12.32 64.48,-40.57333 13.77333,-28.25333 10.50667,-65.57333 2.89333,-84.04 -6.04,-14.68 -32.13333,-13.98666 -44.94666,-13.76 -42.96,0.72 -67.32,43.12 -60.10667,84.04"
             style="fill:#f4c0b8;fill-opacity:1;fill-rule:nonzero;stroke:none;stroke-width:0.133333"
             id="path334" />
          <path
             d="m 655.45759,649.2821 c 0,0 -0.45333,23.76 19.32,43.53333 19.77333,19.77334 59.53333,30.10667 59.53333,30.10667 l 4.70667,11.16 c 0,0 6.28,-35.52 -8.69334,-59.2 -14.97333,-23.66667 -74.86666,-25.6 -74.86666,-25.6"
             style="fill:#13375b;fill-opacity:1;fill-rule:nonzero;stroke:none;stroke-width:0.133333"
             id="path336" />
          <path
             d="m 1092.2442,642.93543 c 0,0 21.04,6.01334 33.6267,27.24 12.6,21.22667 20.2,82.21333 -23.44,108.25333 -43.6267,26.02667 -72.8,-15.77333 -75.8533,-54.65333 -3.6134,-45.98666 16.4533,-88.65333 65.6666,-80.84"
             style="fill:#966259;fill-opacity:1;fill-rule:nonzero;stroke:none;stroke-width:0.133333"
             id="path338" />
          <path
             d="m 2486.0309,1414.7354 c 0,0 20.72,84.4933 36.16,97.76 15.44,13.2667 65.7866,38.64 52.6133,41.3733 -13.1733,2.7334 -110.68,5 -108.0133,-11.2666 2.68,-16.2667 5.48,-26.6267 5.48,-26.6267 l -25.7867,-60.36 39.5467,-40.88"
             style="fill:#f79c8d;fill-opacity:1;fill-rule:nonzero;stroke:none;stroke-width:0.133333"
             id="path340" />
          <path
             d="m 2581.3642,1557.3354 c -23.7867,2.36 -93.2133,4.8667 -113.4533,2.28 0,0 -3.7867,-0.7467 -1.12,-17.0133 0.6533,-3.9734 1.32,-7.6 1.9466,-10.8 18.3467,4.8133 58.3067,-5.44 74.1334,-7.5467 17.2,8.24 36.5866,20.5333 42.84,21.56 9.0533,1.48 9.04,10.1867 -4.3467,11.52"
             style="fill:#13375b;fill-opacity:1;fill-rule:nonzero;stroke:none;stroke-width:0.133333"
             id="path342" />
          <path
             d="m 2258.6442,1485.5754 c 0,0 -2.1733,21.3733 -2.1733,30.8 0,9.4133 8.7733,35.9733 4.7066,40.04 -4.0666,4.0667 -120.2133,3.5733 -120.2133,-0.2533 0,-3.8267 20.5334,-15.4267 48.4267,-23.3867 27.8933,-7.9733 37.3733,-38.8667 30.1333,-56.6133 l 39.12,9.4133"
             style="fill:#f79c8d;fill-opacity:1;fill-rule:nonzero;stroke:none;stroke-width:0.133333"
             id="path344" />
          <path
             d="m 2139.0976,1556.4154 c 0,-3.56 19.04,-14.5067 43.72,-22.04 26.28,8.88 62.7866,1.5467 76.4666,-1.0667 4.1867,10.96 5.5333,21.3334 3.3733,23.4934 -4.0666,4.0666 -123.5599,3.44 -123.5599,-0.3867"
             style="fill:#13375b;fill-opacity:1;fill-rule:nonzero;stroke:none;stroke-width:0.133333"
             id="path346" />
          <path
             d="m 2384.7109,1128.3888 20.8266,18.48 c 0,0 23.4534,63.48 24.8134,67.68 1.9066,5.8266 77.8666,250.5999 77.8666,250.5999 l -52.92,19.04 c 0,0 -52.4666,-102.2133 -61.1733,-137.72 -8.68,-35.5066 -95.6267,-184.0266 -95.6267,-184.0266 l 86.2134,-34.0533"
             style="fill:#fae0b2;fill-opacity:1;fill-rule:nonzero;stroke:none;stroke-width:0.133333"
             id="path348" />
          <path
             d="m 2292.6975,1166.0554 -25.36,324.4267 h -58.6799 c 0,0 -21.0134,-242.7867 -13.7734,-328.04 l 97.8133,3.6133"
             style="fill:#fae0b2;fill-opacity:1;fill-rule:nonzero;stroke:none;stroke-width:0.133333"
             id="path350" />
          <path
             d="m 2189.8176,839.29543 c 0,0 37.3066,-9.77333 79.6933,-12.13333 21.9466,-1.21334 51.44,3.44 51.44,3.44 0,0 26.8133,60.13333 34.7733,109.39999 7.9733,49.28 51.4533,207.22671 51.4533,207.22671 0,0 -88.4,68.0933 -217.3599,23.1866 V 839.29543"
             style="fill:#50bfa5;fill-opacity:1;fill-rule:nonzero;stroke:none;stroke-width:0.133333"
             id="path352" />
          <path
             d="m 2290.2842,785.4421 c 0,0 -1.16,38.46666 2.4533,42.08 3.6134,3.61333 8.6534,9.6 3.3467,18.78666 -5.32,9.17334 -28.3867,3.32 -39.1333,-1.93333 -10.3067,-5.04 -16.9734,-14.42667 -16.9734,-14.42667 l 5.3867,-60.93333 44.92,16.42667"
             style="fill:#f79c8d;fill-opacity:1;fill-rule:nonzero;stroke:none;stroke-width:0.133333"
             id="path354" />
          <path
             d="m 2274.9509,801.38876 c -7.4134,-2.6 -20.36,-7.6 -30.3467,-23.84 l 0.76,-8.53333 44.92,16.42667 c 0,0 -0.28,9.38666 -0.1333,19.32 -6.2934,-0.26667 -11.6667,-2.14667 -15.2,-3.37334"
             style="fill:#b75742;fill-opacity:1;fill-rule:nonzero;stroke:none;stroke-width:0.133333"
             id="path356" />
          <path
             d="m 2237.4442,725.5221 c 0,0 -1.0933,-22.61333 -14.9733,-18.22667 -13.8933,4.38667 -3.3067,38.52 8.2133,37.4 11.5067,-1.12 6.76,-19.17333 6.76,-19.17333"
             style="fill:#f79c8d;fill-opacity:1;fill-rule:nonzero;stroke:none;stroke-width:0.133333"
             id="path358" />
          <path
             d="m 2281.1109,651.6421 c 0,0 21.7333,-0.48 32.84,16.42667 11.1066,16.90666 23.1866,65.21333 4.8266,98.53333 -18.3466,33.33333 -41.7733,25.12 -51.44,21.73333 -9.6533,-3.37333 -28.7333,-10.86667 -38.3999,-42.01333 -9.6534,-31.16 -2.6534,-101.2 52.1733,-94.68"
             style="fill:#f79c8d;fill-opacity:1;fill-rule:nonzero;stroke:none;stroke-width:0.133333"
             id="path360" />
          <path
             d="m 2193.9642,838.2821 c 9.92,22.37333 34.2934,70.54666 33.1734,123.67999 -1.1734,55.65331 -43.0267,91.77331 -43.0267,91.77331 v 27.5067 c 0,0 46.1867,-7.28 63.8533,-79.1867 17.6533,-71.90664 -24.84,-169.59997 -24.84,-169.59997 0,0 -6.0533,-4.32 -18.08,-0.97333 -8.0133,2.24 -11.08,6.8 -11.08,6.8"
             style="fill:#355389;fill-opacity:1;fill-rule:nonzero;stroke:none;stroke-width:0.133333"
             id="path362" />
          <path
             d="m 2295.4442,826.9621 c 0,0 34.7067,186.8267 79.7333,198.9333 l -7.84,-31.85331 c 0,0 -46.3866,-151.14666 -46.3866,-163.43999 0,-12.28 -25.5067,-3.64 -25.5067,-3.64"
             style="fill:#355389;fill-opacity:1;fill-rule:nonzero;stroke:none;stroke-width:0.133333"
             id="path364" />
          <path
             d="M 2389.3642,1146.6554 H 2254.6709 V 993.16209 l 134.6933,5.98667 v 147.50664"
             style="fill:#f47458;fill-opacity:1;fill-rule:nonzero;stroke:none;stroke-width:0.133333"
             id="path366" />
          <path
             d="m 2389.3642,987.18876 h -128.7067 c -3.3066,0 -5.9866,2.68 -5.9866,5.97333 v 0 c 0,3.30667 2.68,5.98667 5.9866,5.98667 h 128.7067 l -0.1067,-0.04 c -8.8933,-3.33334 -8.8533,-8.61333 0.1067,-11.92"
             style="fill:#b75742;fill-opacity:1;fill-rule:nonzero;stroke:none;stroke-width:0.133333"
             id="path368" />
          <path
             d="m 2385.6842,988.94876 h -120.5867 c -2.3333,0 -4.2266,1.89333 -4.2266,4.21333 v 0 c 0,2.33333 1.8933,4.21333 4.2266,4.21333 h 120.5867 c -4.0933,-2.6 -4.08,-5.81333 0,-8.42666"
             style="fill:#fae0b2;fill-opacity:1;fill-rule:nonzero;stroke:none;stroke-width:0.133333"
             id="path370" />
          <path
             d="m 2330.3242,989.81543 h -8.48 c -1.8267,0 -3.2933,1.48 -3.2933,3.30666 v 0.29334 h 11.7733 v -3.6"
             style="fill:#13375b;fill-opacity:1;fill-rule:nonzero;stroke:none;stroke-width:0.133333"
             id="path372" />
          <path
             d="m 2322.1909,989.82876 c 2.0266,0 5.0533,1.72 6.76,3.82667 l 20.12,24.94667 h 11.8133 l -19.1333,-23.73334 c -2.24,-2.78667 -6.24,-5.05333 -8.9067,-5.04 h -10.6533"
             style="fill:#355389;fill-opacity:1;fill-rule:nonzero;stroke:none;stroke-width:0.133333"
             id="path374" />
          <path
             d="m 2189.8176,839.29543 c 0,0 10.16,10.18667 21.0266,48.78666 10.8667,38.6 16.4,128.97331 25.8267,138.38671 9.4133,9.4133 71,58.44 82.1066,56.76 11.1067,-1.6934 35.9867,-30.68 43.72,-30.68 7.72,0 6.76,7 2.8934,10.8666 -3.8667,3.8667 -8.5734,8.3334 -6.28,10.6267 2.2933,2.2933 2.2933,2.2933 2.2933,2.2933 0,0 34.4133,-9.0533 40.2133,-5.6666 5.8,3.3733 -5.56,11.3466 -5.56,17.1466 0,5.7867 1.4267,5.6934 0.7334,12.0667 -0.6934,6.3867 -2.2934,11.48 -5.32,14.4933 -3.0134,3.0267 -41.0534,14.0134 -78.24,8.9334 -37.2,-5.0667 -82.6,-22.9334 -116.1733,-64.48 -33.5734,-41.5334 -26.84,-172.09337 -26.08,-185.12004 1.9333,-32.96 18.84,-34.41333 18.84,-34.41333"
             style="fill:#f79c8d;fill-opacity:1;fill-rule:nonzero;stroke:none;stroke-width:0.133333"
             id="path376" />
          <path
             d="m 2165.9376,415.68211 c 12.8133,33.81333 50.5866,50.82666 84.3866,38.02666 33.8,-12.81333 50.8133,-50.6 38.0133,-84.41333 -12.8,-33.8 -50.5866,-50.82666 -84.3866,-38.01333 -33.8,12.81333 -50.8133,50.6 -38.0133,84.4"
             style="fill:#f7cc7f;fill-opacity:1;fill-rule:nonzero;stroke:none;stroke-width:0.133333"
             id="path378" />
          <path
             d="m 2263.5375,389.78877 c 6.84,18.08 -2.2666,38.28 -20.3333,45.13334 -18.0666,6.84 -38.2666,-2.25334 -45.1066,-20.33334 l 65.4399,-24.8"
             style="fill:#efefef;fill-opacity:1;fill-rule:nonzero;stroke:none;stroke-width:0.133333"
             id="path380" />
        </g>
      </g>
    </g>
  </g>
</svg>
